<?xml version="1.0" encoding="utf-8"?>
<!-- Generator: Adobe Illustrator 21.0.0, SVG Export Plug-In . SVG Version: 6.00 Build 0)  -->
<svg version="1.1" id="Layer_1" xmlns="http://www.w3.org/2000/svg" xmlns:xlink="http://www.w3.org/1999/xlink" x="0px" y="0px"
	 viewBox="0 0 3840 2160" style="enable-background:new 0 0 3840 2160;" xml:space="preserve">
<style type="text/css">
	.st0{fill:#F40C96;}
	.st1{fill:#03EDFF;}
	.st2{fill:#383838;}
	.st3{fill:url(#SVGID_1_);}
	.st4{fill:#FFFFFF;}
	.st5{font-family:'LeagueSpartan-Bold';}
	.st6{font-size:19.3998px;}
	.st7{fill:url(#SVGID_4_);}
	.st8{clip-path:url(#SVGID_6_);}
	.st9{font-family:'Brightness-Regular';}
	.st10{font-size:315.0774px;}
	.st11{clip-path:url(#SVGID_8_);}
	.st12{fill:#00EDFF;}
	.st13{clip-path:url(#SVGID_10_);}
	.st14{clip-path:url(#SVGID_12_);}
	.st15{clip-path:url(#SVGID_14_);}
	.st16{font-size:172.9574px;}
	.st17{clip-path:url(#SVGID_16_);}
	.st18{font-size:172.9581px;}
	.st19{clip-path:url(#SVGID_18_);}
	.st20{clip-path:url(#SVGID_20_);}
	.st21{font-size:174.821px;}
	.st22{clip-path:url(#SVGID_22_);}
	.st23{clip-path:url(#SVGID_24_);}
	.st24{clip-path:url(#SVGID_26_);}
	.st25{clip-path:url(#SVGID_28_);}
	.st26{clip-path:url(#SVGID_30_);}
	.st27{clip-path:url(#SVGID_32_);}
	.st28{clip-path:url(#SVGID_34_);}
	.st29{clip-path:url(#SVGID_36_);}
	.st30{clip-path:url(#SVGID_38_);}
	.st31{clip-path:url(#SVGID_40_);}
	.st32{clip-path:url(#SVGID_42_);}
	.st33{clip-path:url(#SVGID_44_);}
</style>
<g>
	<polygon points="3746.8,1580.6 94.3,1580.6 94.3,544 3746.8,544 3746.8,1080.4 	"/>
	<g>
		<polygon class="st0" points="3650.1,1550.7 3649.5,1550.7 3699.3,1487.7 3747.3,1550.4 		"/>
		<polygon class="st1" points="3649.5,1558.6 3699.3,1495.5 3747.2,1558.3 		"/>
		<polygon class="st1" points="3747.1,1493.1 3696.7,1493.3 3744.5,1556.1 3747,1552.6 		"/>
		<polygon class="st2" points="3747,1489.9 3687.5,1490.2 3735.4,1552.9 3747,1538.2 		"/>
		<polygon class="st0" points="3747,1545 3747,1485.2 3696.8,1485.4 		"/>
		<polygon class="st0" points="3747.2,1433.1 3743.8,1428.7 3694,1491.8 3747.2,1491.8 		"/>
		<polygon class="st1" points="3747.2,1439.1 3747.2,1494.8 3703.1,1494.9 		"/>
		<polygon class="st2" points="3747.2,1499.4 3694,1499.4 3747.2,1433.1 		"/>
		<polygon class="st1" points="3743.4,1436.6 3743.9,1436.6 3694,1499.7 3646.2,1436.9 		"/>
		<path class="st2" d="M3637,1433.7c2.5-0.3,95-0.2,97.7-0.2c-16.6,21-33.3,42-49.9,63C3668.9,1475.6,3653,1454.7,3637,1433.7z"/>
		<polygon class="st0" points="3744,1428.8 3694.1,1491.8 3646.2,1429 		"/>
	</g>
	<g>
		<polygon class="st0" points="2080.3,1540.7 2130.1,1477.7 2178,1540.4 		"/>
		<path class="st2" d="M2187.2,1534.6c-2.5,0.3-95,0.4-97.7,0.4c16.6-21,33.2-42,49.8-63.1
			C2155.2,1492.8,2171.2,1513.7,2187.2,1534.6z"/>
		<polygon class="st1" points="2080.8,1531.9 2080.3,1531.9 2130.1,1468.8 2178,1531.5 		"/>
		<g>
			<polygon class="st0" points="1993.5,1540.2 2043.4,1477.1 2091.3,1539.9 			"/>
			<path class="st2" d="M2100.5,1535.1c-2.5,0.3-95,0.4-97.7,0.4c16.6-21,33.2-42,49.8-63.1
				C2068.5,1493.3,2084.5,1514.2,2100.5,1535.1z"/>
			<polygon class="st1" points="1994.1,1532.3 1993.6,1532.3 2043.4,1469.3 2091.3,1532 			"/>
		</g>
		<g>
			<polygon class="st0" points="2140.1,1464.6 2090.2,1527.6 2042.4,1464.8 			"/>
			<polygon class="st1" points="2139.5,1472.4 2140.1,1472.4 2090.2,1535.4 2042.3,1472.7 			"/>
			<path class="st2" d="M2033.2,1469.5c2.5-0.3,95-0.2,97.7-0.2c-16.6,21-33.3,42-49.9,63
				C2065.1,1511.4,2049.1,1490.5,2033.2,1469.5z"/>
		</g>
		<g>
			<polygon class="st1" points="1904.3,1532.5 1903.8,1532.5 1953.6,1469.4 2001.5,1532.1 			"/>
			<polygon class="st0" points="1903.7,1540.4 1953.5,1477.3 2001.5,1540 			"/>
			<path class="st2" d="M2010.6,1535.2c-2.5,0.3-95,0.4-97.7,0.4c16.6-21,33.2-42,49.8-63.1
				C1978.7,1493.4,1994.7,1514.3,2010.6,1535.2z"/>
		</g>
		<g>
			<polygon class="st1" points="2049.7,1472.6 2050.2,1472.6 2000.3,1535.6 1952.5,1472.8 			"/>
			<path class="st2" d="M1943.4,1469.7c2.5-0.3,95-0.2,97.7-0.2c-16.6,21-33.3,42-49.9,63
				C1975.3,1511.5,1959.3,1490.6,1943.4,1469.7z"/>
			<polygon class="st0" points="2050.3,1464.7 2000.4,1527.7 1952.6,1464.9 			"/>
		</g>
		<g>
			<path class="st2" d="M1921,1535.4c-2.5,0.3-95,0.4-97.7,0.4c16.6-21,33.2-42,49.8-63.1C1889.1,1493.6,1905.1,1514.5,1921,1535.4z
				"/>
			<polygon class="st1" points="1814.7,1532.6 1814.2,1532.7 1864,1469.6 1911.9,1532.3 			"/>
			<polygon class="st0" points="1814.1,1540.5 1863.9,1477.5 1911.9,1540.2 			"/>
		</g>
		<g>
			<polygon class="st0" points="1970.7,1465 1920.8,1528 1873,1465.3 			"/>
			<polygon class="st2" points="1970.1,1472.9 1970.6,1472.9 1920.7,1535.9 1872.9,1473.1 			"/>
			<path class="st1" d="M1863.8,1470c2.5-0.3,95-0.2,97.7-0.2c-16.6,21-33.3,42-49.9,63C1895.7,1511.9,1879.7,1490.9,1863.8,1470z"
				/>
		</g>
		<g>
			<polygon class="st0" points="1879.7,1465.3 1829.8,1528.3 1782,1465.5 			"/>
			<polygon class="st1" points="1879.1,1473.2 1879.7,1473.1 1829.8,1536.2 1781.9,1473.4 			"/>
			<path class="st2" d="M1772.8,1470.2c2.5-0.3,95-0.2,97.7-0.2c-16.6,21-33.3,42-49.9,63
				C1804.7,1512.1,1788.8,1491.2,1772.8,1470.2z"/>
		</g>
		<g>
			<polygon class="st0" points="2210.6,1467.1 2260.4,1404 2308.3,1466.7 			"/>
			<path class="st2" d="M2317.5,1462c-2.5,0.3-95,0.4-97.7,0.4c16.6-21,33.2-42,49.8-63.1C2285.5,1420.1,2301.5,1441.1,2317.5,1462z
				"/>
			<polygon class="st1" points="2211.1,1459.2 2210.6,1459.2 2260.4,1396.1 2308.4,1458.8 			"/>
		</g>
		<g>
			<polygon class="st0" points="2124.9,1467.6 2174.7,1404.5 2222.6,1467.2 			"/>
			<path class="st2" d="M2231.8,1462.4c-2.5,0.3-95,0.4-97.7,0.4c16.6-21,33.2-42,49.8-63.1
				C2199.8,1420.6,2215.8,1441.5,2231.8,1462.4z"/>
			<polygon class="st1" points="2125.4,1459.7 2124.9,1459.7 2174.7,1396.6 2222.6,1459.3 			"/>
		</g>
		<g>
			<polygon class="st0" points="2271.4,1391.9 2221.5,1454.9 2173.7,1392.1 			"/>
			<polygon class="st1" points="2270.8,1399.8 2271.4,1399.8 2221.5,1462.8 2173.6,1400 			"/>
			<path class="st2" d="M2164.5,1396.9c2.5-0.3,95-0.2,97.7-0.2c-16.6,21-33.3,42-49.9,63
				C2196.4,1438.7,2180.4,1417.8,2164.5,1396.9z"/>
		</g>
		<g>
			<polygon class="st1" points="2035.6,1459.8 2035.1,1459.8 2084.9,1396.7 2132.8,1459.5 			"/>
			<polygon class="st0" points="2035,1467.7 2084.9,1404.6 2132.8,1467.3 			"/>
			<path class="st2" d="M2142,1462.6c-2.5,0.3-95,0.4-97.7,0.4c16.6-21,33.2-42,49.8-63.1C2110,1420.8,2126,1441.7,2142,1462.6z"/>
		</g>
		<g>
			<polygon class="st1" points="2181,1399.9 2181.6,1399.9 2131.6,1462.9 2083.8,1400.1 			"/>
			<path class="st2" d="M2074.7,1397c2.5-0.3,95-0.2,97.7-0.2c-16.6,21-33.3,42-49.9,63C2106.6,1438.9,2090.6,1417.9,2074.7,1397z"
				/>
			<polygon class="st0" points="2181.6,1392 2131.7,1455 2083.9,1392.3 			"/>
		</g>
		<g>
			<path class="st2" d="M2052.4,1462.8c-2.5,0.3-95,0.4-97.7,0.4c16.6-21,33.2-42,49.8-63.1
				C2020.4,1420.9,2036.4,1441.8,2052.4,1462.8z"/>
			<polygon class="st1" points="1946,1460 1945.5,1460 1995.3,1396.9 2043.2,1459.6 			"/>
			<polygon class="st0" points="1945.4,1467.9 1995.2,1404.8 2043.2,1467.5 			"/>
		</g>
		<g>
			<polygon class="st0" points="1855.6,1468 1905.4,1404.9 1953.3,1467.7 			"/>
			<path class="st2" d="M1962.5,1462.9c-2.5,0.3-95,0.4-97.7,0.4c16.6-21,33.2-42,49.8-63.1
				C1930.6,1421.1,1946.6,1442,1962.5,1462.9z"/>
			<polygon class="st1" points="1856.2,1460.1 1855.7,1460.1 1905.5,1397.1 1953.4,1459.8 			"/>
		</g>
		<g>
			<polygon class="st0" points="2102,1392.4 2052.1,1455.4 2004.3,1392.6 			"/>
			<polygon class="st2" points="2101.4,1400.3 2102,1400.3 2052.1,1463.3 2004.2,1400.5 			"/>
			<path class="st1" d="M1995.1,1397.4c2.5-0.3,95-0.2,97.7-0.2c-16.6,21-33.3,42-49.9,63C2027,1439.2,2011,1418.3,1995.1,1397.4z"
				/>
		</g>
		<g>
			<polygon class="st0" points="2011.1,1392.6 1961.1,1455.6 1913.3,1392.8 			"/>
			<polygon class="st1" points="2010.5,1400.5 2011,1400.5 1961.1,1463.5 1913.3,1400.7 			"/>
			<path class="st2" d="M1904.1,1397.6c2.5-0.3,95-0.2,97.7-0.2c-16.6,21-33.3,42-49.9,63C1936,1439.4,1920.1,1418.5,1904.1,1397.6z
				"/>
		</g>
		<g>
			<polygon class="st1" points="2226.4,1475.5 2227,1475.5 2177.1,1538.5 2129.2,1475.7 			"/>
			<path class="st2" d="M2120.1,1471.6c2.5-0.3,95-0.2,97.7-0.2c-16.6,21-33.3,42-49.9,63C2152,1513.4,2136.1,1492.5,2120.1,1471.6z
				"/>
			<polygon class="st0" points="2227,1466.6 2177.1,1529.6 2129.3,1466.8 			"/>
		</g>
		<g>
			<polygon class="st1" points="2175.6,1531.5 2175.1,1531.5 2224.9,1468.4 2272.8,1531.2 			"/>
			<polygon class="st0" points="2175,1540.4 2224.9,1477.3 2272.8,1540 			"/>
			<path class="st2" d="M2282,1534.3c-2.5,0.3-95,0.4-97.7,0.4c16.6-21,33.2-42,49.8-63.1C2250,1492.5,2266,1513.4,2282,1534.3z"/>
		</g>
		<g>
			<polygon class="st1" points="2322,1476.5 2322.5,1476.5 2272.6,1539.5 2224.8,1476.7 			"/>
			<path class="st2" d="M2214.7,1471.6c2.5-0.3,95-0.2,97.7-0.2c-16.6,21-33.3,42-49.9,63
				C2246.6,1513.4,2230.6,1492.5,2214.7,1471.6z"/>
			<polygon class="st0" points="2321.6,1466.6 2271.7,1529.6 2223.9,1466.8 			"/>
		</g>
		<g>
			<path class="st2" d="M2186.7,1389.1c-2.5,0.3-95,0.4-97.7,0.4c16.6-21,33.2-42,49.8-63.1
				C2154.7,1347.3,2170.7,1368.2,2186.7,1389.1z"/>
			<polygon class="st1" points="2080.3,1386.4 2079.8,1386.4 2129.6,1323.3 2177.5,1386 			"/>
			<polygon class="st0" points="2079.7,1394.3 2129.6,1331.2 2177.5,1393.9 			"/>
		</g>
		<g>
			<polygon class="st1" points="2170.6,1389.4 2170.1,1389.4 2219.9,1326.3 2267.8,1389 			"/>
			<polygon class="st2" points="2170,1397.3 2219.8,1334.2 2267.8,1396.9 			"/>
			<path class="st0" d="M2277,1392.1c-2.5,0.3-95,0.4-97.7,0.4c16.6-21,33.2-42,49.8-63.1C2245,1350.3,2261,1371.2,2277,1392.1z"/>
		</g>
		<g>
			<polygon class="st0" points="2236,1318.4 2186.1,1381.4 2138.3,1318.7 			"/>
			<polygon class="st2" points="2235.4,1326.3 2236,1326.3 2186,1389.3 2138.2,1326.5 			"/>
			<path class="st1" d="M2129.1,1323.4c2.5-0.3,95-0.2,97.7-0.2c-16.6,21-33.3,42-49.9,63C2161,1365.3,2145,1344.3,2129.1,1323.4z"
				/>
		</g>
		<g>
			<polygon class="st0" points="2336.2,1325.7 2286.3,1388.7 2238.4,1325.9 			"/>
			<polygon class="st1" points="2335.6,1333.6 2336.1,1333.6 2286.2,1396.6 2238.4,1333.8 			"/>
			<path class="st2" d="M2229.2,1330.7c2.5-0.3,95-0.2,97.7-0.2c-16.6,21-33.3,42-49.9,63
				C2261.1,1372.5,2245.2,1351.6,2229.2,1330.7z"/>
		</g>
		<g>
			<polygon class="st0" points="2285.3,1404.6 2335.1,1341.5 2383,1404.2 			"/>
			<path class="st2" d="M2392.2,1399.5c-2.5,0.3-95,0.4-97.7,0.4c16.6-21,33.2-42,49.8-63.1
				C2360.3,1357.7,2376.3,1378.6,2392.2,1399.5z"/>
			<polygon class="st1" points="2285.9,1396.7 2285.4,1396.7 2335.2,1333.6 2383.1,1396.4 			"/>
		</g>
		<g>
			<polygon class="st0" points="2433.5,1325.8 2383.6,1388.8 2335.7,1326 			"/>
			<polygon class="st2" points="2432.9,1333.7 2433.4,1333.7 2383.5,1396.7 2335.7,1333.9 			"/>
			<path class="st1" d="M2326.6,1330.8c2.5-0.3,95-0.2,97.7-0.2c-16.6,21-33.3,42-49.9,63
				C2358.4,1372.6,2342.5,1351.7,2326.6,1330.8z"/>
		</g>
		<g>
			<path class="st1" d="M2490.4,1398.1c-2.5,0.3-95,0.4-97.7,0.4c16.6-21,33.2-42,49.8-63.1
				C2458.4,1356.3,2474.4,1377.2,2490.4,1398.1z"/>
			<polygon class="st0" points="2383.5,1403.2 2433.3,1340.1 2481.2,1402.8 			"/>
			<polygon class="st2" points="2384.1,1395.3 2383.5,1395.3 2433.3,1332.2 2481.3,1395 			"/>
		</g>
	</g>
	<g>
		<polygon class="st0" points="567.7,1545.8 617.4,1482.9 665.2,1545.4 		"/>
		<path class="st2" d="M674.4,1540.7c-2.5,0.3-94.8,0.4-97.5,0.4c16.6-21,33.1-41.9,49.7-62.9C642.5,1499,658.4,1519.8,674.4,1540.7
			z"/>
		<polygon class="st1" points="568.3,1537.9 567.7,1537.9 617.4,1475 665.2,1537.6 		"/>
		<polygon class="st0" points="481.2,1546.3 530.9,1483.3 578.7,1545.9 		"/>
		<path class="st2" d="M587.9,1541.2c-2.5,0.3-94.8,0.4-97.5,0.4c16.6-21,33.1-41.9,49.7-62.9C556,1499.4,571.9,1520.3,587.9,1541.2
			z"/>
		<polygon class="st1" points="481.8,1538.4 481.2,1538.4 530.9,1475.5 578.7,1538 		"/>
		<polygon class="st0" points="627.4,1470.8 577.6,1533.6 529.9,1471 		"/>
		<polygon class="st1" points="626.8,1478.6 627.4,1478.6 577.6,1541.5 529.9,1478.9 		"/>
		<path class="st2" d="M520.7,1475.7c2.5-0.3,94.8-0.2,97.5-0.2c-16.6,21-33.2,41.9-49.8,62.9
			C552.6,1517.5,536.7,1496.6,520.7,1475.7z"/>
		<polygon class="st1" points="392.2,1538.5 391.6,1538.5 441.3,1475.6 489.1,1538.2 		"/>
		<polygon class="st0" points="391.6,1546.4 441.3,1483.5 489.1,1546 		"/>
		<path class="st2" d="M498.3,1541.3c-2.5,0.3-94.8,0.4-97.5,0.4c16.6-21,33.1-41.9,49.7-62.9
			C466.4,1499.6,482.3,1520.4,498.3,1541.3z"/>
		<polygon class="st1" points="537.2,1478.8 537.8,1478.8 488,1541.6 440.3,1479 		"/>
		<path class="st2" d="M431.1,1475.9c2.5-0.3,94.8-0.2,97.5-0.2c-16.6,21-33.2,41.9-49.8,62.9C463,1517.6,447,1496.8,431.1,1475.9z"
			/>
		<polygon class="st0" points="537.8,1470.9 488,1533.8 440.3,1471.1 		"/>
		<path class="st2" d="M408.9,1541.5c-2.5,0.3-94.8,0.4-97.5,0.4c16.6-21,33.1-41.9,49.7-62.9C377,1499.8,392.9,1520.6,408.9,1541.5
			z"/>
		<polygon class="st1" points="302.8,1538.7 302.2,1538.7 351.9,1475.8 399.7,1538.4 		"/>
		<polygon class="st0" points="302.2,1546.6 351.9,1483.7 399.7,1546.2 		"/>
		<polygon class="st0" points="458.4,1471.3 408.6,1534.1 360.9,1471.5 		"/>
		<polygon class="st2" points="457.8,1479.1 458.4,1479.1 408.6,1542 360.9,1479.3 		"/>
		<path class="st1" d="M351.7,1476.2c2.5-0.3,94.8-0.2,97.5-0.2c-16.6,21-33.2,41.9-49.8,62.9C383.6,1518,367.7,1497.1,351.7,1476.2
			z"/>
		<polygon class="st0" points="367.7,1471.5 317.9,1534.4 270.2,1471.7 		"/>
		<polygon class="st1" points="367.1,1479.4 367.6,1479.4 317.8,1542.2 270.1,1479.6 		"/>
		<path class="st2" d="M261,1476.5c2.5-0.3,94.8-0.2,97.5-0.2c-16.6,21-33.2,41.9-49.8,62.9C292.8,1518.2,276.9,1497.3,261,1476.5z"
			/>
		<polygon class="st0" points="612.2,1473.8 661.9,1410.9 709.7,1473.4 		"/>
		<path class="st2" d="M718.9,1468.7c-2.5,0.3-94.8,0.4-97.5,0.4c16.6-21,33.1-41.9,49.7-62.9C687,1427,702.9,1447.8,718.9,1468.7z"
			/>
		<polygon class="st1" points="612.8,1465.9 612.2,1465.9 661.9,1403 709.7,1465.6 		"/>
		<polygon class="st1" points="523.2,1466.1 522.6,1466.1 572.3,1403.1 620.1,1465.7 		"/>
		<polygon class="st0" points="522.6,1473.9 572.3,1411 620.1,1473.6 		"/>
		<path class="st2" d="M629.3,1468.8c-2.5,0.3-94.8,0.4-97.5,0.4c16.6-21,33.1-41.9,49.7-62.9C597.4,1427.1,613.3,1448,629.3,1468.8
			z"/>
		<path class="st2" d="M539.9,1469c-2.5,0.3-94.8,0.4-97.5,0.4c16.6-21,33.1-41.9,49.7-62.9C508,1427.3,523.9,1448.1,539.9,1469z"/>
		<polygon class="st1" points="433.8,1466.2 433.2,1466.2 482.9,1403.3 530.7,1465.9 		"/>
		<polygon class="st0" points="433.2,1474.1 482.9,1411.2 530.7,1473.7 		"/>
		<polygon class="st0" points="343.6,1474.2 393.3,1411.3 441.1,1473.9 		"/>
		<path class="st2" d="M450.3,1469.1c-2.5,0.3-94.8,0.4-97.5,0.4c16.6-21,33.1-41.9,49.7-62.9
			C418.4,1427.4,434.3,1448.3,450.3,1469.1z"/>
		<polygon class="st1" points="344.2,1466.4 343.6,1466.4 393.3,1403.5 441.1,1466 		"/>
		<polygon class="st0" points="589.4,1398.8 539.6,1461.6 491.9,1399 		"/>
		<polygon class="st2" points="588.8,1406.6 589.4,1406.6 539.6,1469.5 491.9,1406.9 		"/>
		<path class="st1" d="M482.7,1403.7c2.5-0.3,94.8-0.2,97.5-0.2c-16.6,21-33.2,41.9-49.8,62.9
			C514.6,1445.5,498.7,1424.6,482.7,1403.7z"/>
		<polygon class="st0" points="498.7,1399 448.9,1461.9 401.2,1399.2 		"/>
		<polygon class="st1" points="498.1,1406.9 498.6,1406.9 448.8,1469.7 401.1,1407.1 		"/>
		<path class="st2" d="M392,1404c2.5-0.3,94.8-0.2,97.5-0.2c-16.6,21-33.2,41.9-49.8,62.9C423.8,1445.7,407.9,1424.9,392,1404z"/>
		<polygon class="st1" points="713.5,1480.7 714.1,1480.7 664.3,1543.5 616.6,1480.9 		"/>
		<path class="st2" d="M607.5,1477.8c2.5-0.3,94.8-0.2,97.5-0.2c-16.6,21-33.2,41.9-49.8,62.9
			C639.3,1519.5,623.4,1498.6,607.5,1477.8z"/>
		<polygon class="st0" points="714.1,1472.8 664.3,1535.7 616.6,1473 		"/>
		<polygon class="st1" points="662.8,1537.6 662.3,1537.6 712,1474.7 759.8,1537.2 		"/>
		<polygon class="st0" points="662.3,1546.4 712,1483.5 759.8,1546.1 		"/>
		<path class="st2" d="M768.9,1540.3c-2.5,0.3-94.8,0.4-97.5,0.4c16.6-21,33.1-41.9,49.7-62.9C737.1,1498.6,753,1519.5,768.9,1540.3
			z"/>
		<polygon class="st1" points="807.9,1481.7 808.4,1481.7 758.6,1544.5 710.9,1481.9 		"/>
		<path class="st2" d="M701.8,1477.8c2.5-0.3,94.8-0.2,97.5-0.2c-16.6,21-33.2,41.9-49.8,62.9
			C733.6,1519.5,717.7,1498.6,701.8,1477.8z"/>
		<polygon class="st0" points="808.5,1472.8 758.7,1535.7 711,1473 		"/>
		<g>
			<path class="st2" d="M232.8,1540.9c-2.5,0.3-94.8,0.4-97.5,0.4c16.6-21,33.1-41.9,49.7-62.9
				C201,1499.2,216.9,1520.1,232.8,1540.9z"/>
			<polygon class="st1" points="126.8,1538.2 126.2,1538.2 175.9,1475.3 223.7,1537.8 			"/>
			<polygon class="st0" points="126.2,1546 175.9,1483.1 223.7,1545.7 			"/>
		</g>
		<polygon class="st0" points="273.5,1475 223.7,1537.9 176,1475.2 		"/>
		<path class="st2" d="M166.8,1480c2.5-0.3,94.8-0.2,97.5-0.2c-16.6,21-33.2,41.9-49.8,62.9C198.6,1521.7,182.7,1500.9,166.8,1480z"
			/>
		<polygon class="st1" points="271.9,1482.9 272.4,1482.9 222.6,1545.7 174.9,1483.1 		"/>
		<polygon class="st2" points="165.4,1487.5 215.1,1424.6 262.9,1487.2 		"/>
		<path class="st1" d="M272,1482.4c-2.5,0.3-94.8,0.4-97.5,0.4c16.6-21,33.1-41.9,49.7-62.9C240.2,1440.7,256.1,1461.5,272,1482.4z"
			/>
		<polygon class="st0" points="166,1479.7 165.4,1479.7 215.1,1416.7 262.9,1479.3 		"/>
		<polygon class="st1" points="214.6,1424.8 215.1,1424.8 165.3,1487.6 117.6,1425 		"/>
		<path class="st2" d="M108.5,1421.9c2.5-0.3,94.8-0.2,97.5-0.2c-16.6,21-33.2,41.9-49.8,62.9
			C140.3,1463.6,124.4,1442.8,108.5,1421.9z"/>
		<polygon class="st0" points="215.1,1416.9 165.4,1479.8 117.6,1417.1 		"/>
		<path class="st2" d="M213.4,1412.8c-2.5,0.3-94.8,0.4-97.5,0.4c16.6-21,33.1-41.9,49.7-62.9
			C181.5,1371.1,197.4,1391.9,213.4,1412.8z"/>
		<polygon class="st1" points="107.3,1410 106.7,1410 156.4,1347.1 204.2,1409.7 		"/>
		<polygon class="st0" points="106.7,1417.9 156.4,1355 204.2,1417.5 		"/>
	</g>
	
		<linearGradient id="SVGID_1_" gradientUnits="userSpaceOnUse" x1="94.617" y1="-1156.9509" x2="3747.3831" y2="-1156.9509" gradientTransform="matrix(1 0 0 1 0 2766.9854)">
		<stop  offset="0" style="stop-color:#F40C96"/>
		<stop  offset="1" style="stop-color:#03EDFF"/>
	</linearGradient>
	<path class="st3" d="M94.6,1591.6c5.9-0.2,11.8-0.3,17.7-0.5c4.8,6,9.7,12,14.5,18c49.4,0.2,98.9,0.4,148.3,0.7l8.1-12.1l14,21
		l6-8.9h514.2l14,21h16.1l29.1-43.6l14.1,21.1H1132l4.6-6.9l4.6,6.9h135.2l24.1,36.1l9.1-13.6h59.1l22.1-33.1h53.1l12,18h122.3
		l9.8-14.7l15,22.4l5.2-7.8h271.8l20,30l40-59.9l16,23.9h69.2l15.4-23.1c12.9,19.4,25.9,38.8,38.8,58.2c7.4-9.9,14.9-19.8,22.3-29.6
		h269.6l6,8.9l16-23.9l9.9,14.9c56.4-0.2,112.7-0.4,169.1-0.5c5.2-6,10.3-11.9,15.5-17.9c28.7,0.1,57.4,0.2,86.2,0.2
		c4.5,11,9.1,22,13.6,33.1c18.7,0.2,37.3,0.4,56,0.6c3.7,4.7,7.3,9.3,11,14c7.4-12.6,14.9-25.1,22.3-37.7
		c20.5,0.2,41.1,0.5,61.6,0.7l4.9-7.3l4.9,7.4h240.8l14-21l29,43.5h17.1l14.1-21.1h515.1l5.1,7.6l13.1-19.6l8,12h42.8v-34.5H94.6
		V1591.6z"/>
	<path class="st0" d="M3746.6,1033.7c0-1.3,0-2.5,0-3.8c-673.3-0.1-1346.7-0.3-2020-0.4c-26.1-51.5-52.2-103-78.3-154.4
		c-518.1-0.1-1036.2-0.3-1554.2-0.4c0,3.8,0,7.6,0,11.4c275.1,0.8,550.2,1.5,825.4,2.3c0-3.2-0.1-6.5-0.1-9.7
		c242.4,0.2,484.8,0.4,727.2,0.6c25.6,51.3,51.1,102.6,76.7,153.9C2397.6,1033.3,3072.1,1033.5,3746.6,1033.7z"/>
	<g>
		
			<image style="overflow:visible;" width="64" height="64" xlink:href="../../_icons/iconfinder_social_media_applications_3-instagram_4102579.png"  transform="matrix(0.3906 0 0 0.3725 223.0202 1355.1497)">
		</image>
		
			<image style="overflow:visible;" width="64" height="64" xlink:href="../../_icons/iconfinder_social-twitch-square2_4590797.png"  transform="matrix(0.3906 0 0 0.3725 223.0202 1317.0018)">
		</image>
		<text transform="matrix(0.9279 0 0 1 256.0098 1374.5171)"><tspan x="0" y="0" class="st4 st5 st6">/</tspan><tspan x="11.9" y="0" class="st4 st5 st6">k</tspan><tspan x="24.4" y="0" class="st4 st5 st6">a</tspan><tspan x="37.6" y="0" class="st4 st5 st6">y</tspan><tspan x="49.9" y="0" class="st4 st5 st6">l</tspan><tspan x="55.7" y="0" class="st4 st5 st6">a</tspan><tspan x="68.9" y="0" class="st4 st5 st6">j</tspan><tspan x="74.8" y="0" class="st4 st5 st6">k</tspan><tspan x="87.3" y="0" class="st4 st5 st6">l</tspan><tspan x="93.1" y="0" class="st4 st5 st6">a</tspan><tspan x="106.3" y="0" class="st4 st5 st6">b</tspan></text>
		<text transform="matrix(0.9279 0 0 1 256.01 1336.2173)"><tspan x="0" y="0" class="st4 st5 st6">/</tspan><tspan x="11.9" y="0" class="st4 st5 st6">QuinnDeeDee</tspan></text>
		<text transform="matrix(0.9279 0 0 1 255.3434 1300.0724)"><tspan x="0" y="0" class="st4 st5 st6">/</tspan><tspan x="11.9" y="0" class="st4 st5 st6">kaylajk</tspan><tspan x="87.3" y="0" class="st4 st5 st6">l</tspan><tspan x="93.1" y="0" class="st4 st5 st6">a</tspan><tspan x="106.3" y="0" class="st4 st5 st6">b</tspan></text>
		<g>
			<defs>
				<path id="SVGID_2_" d="M224.7,1281.3c6.9,0,13.8,0,20.7,0c0.7,0.7,1.3,1.3,2,2c0,6.4,0,12.8,0,19.1c-0.5,0.5-1,1-1.6,1.6
					c-7,0-14,0-21.1,0c-0.5-0.5-1.1-1-1.6-1.5c0-6.4,0-12.8,0-19.1C223.6,1282.6,224.1,1282,224.7,1281.3z"/>
			</defs>
			<clipPath id="SVGID_3_">
				<use xlink:href="#SVGID_2_"  style="overflow:visible;"/>
			</clipPath>
			<g transform="matrix(1 0 0 1 -1.525879e-05 0)" style="clip-path:url(#SVGID_3_);">
				
					<image style="overflow:visible;" width="64" height="64" xlink:href="../../_icons/iconfinder_28-deviantart_5462595.png"  transform="matrix(0.3906 0 0 0.3906 222.6867 1279.3334)">
				</image>
			</g>
		</g>
		
			<image style="overflow:visible;" width="64" height="64" xlink:href="../../_icons/iconfinder_YouTube_2613309.png"  transform="matrix(0.3906 0 0 0.3725 223.0203 1242.5317)">
		</image>
		<text transform="matrix(0.9279 0 0 1 255.6767 1263.0724)"><tspan x="0" y="0" class="st4 st5 st6">/</tspan><tspan x="11.9" y="0" class="st4 st5 st6">DeeDee</tspan></text>
	</g>
	
		<linearGradient id="SVGID_4_" gradientUnits="userSpaceOnUse" x1="94.1667" y1="-1234.2792" x2="3747.8333" y2="-1234.2792" gradientTransform="matrix(1 0 0 -1 0 323.0553)">
		<stop  offset="0" style="stop-color:#F40C96"/>
		<stop  offset="1" style="stop-color:#03EDFF"/>
	</linearGradient>
	<path class="st7" d="M94.8,1538.3c1194.5,1.8,3629.6,2.2,3652.7,0.6c0.1,11.9,0.2,23.8,0.4,35.7c-1217.9,0.6-2435.8,1.1-3653.7,1.7
		C94.4,1563.7,94.6,1551,94.8,1538.3z"/>
</g>
<path d="M2681.7,1067.2"/>
<g>
	<g>
		<g>
			<g>
				<defs>
					<polyline id="SVGID_5_" points="3262.9,1336.2 3050.4,1483.6 3048.1,1476.3 3083.3,1411.9 3084.6,1285.2 3215,1287.9 
						3262.9,1336.2 					"/>
				</defs>
				<clipPath id="SVGID_6_">
					<use xlink:href="#SVGID_5_"  style="overflow:visible;"/>
				</clipPath>
				<g class="st8">
					<text transform="matrix(0.9491 0 0 1 3064.1172 1506.4395)" class="st0 st9 st10">D</text>
				</g>
			</g>
			<g>
				<defs>
					<polygon id="SVGID_7_" points="3295.8,1308.6 3046.4,1491.8 3085.7,1514.1 3223.4,1510.6 3287.7,1425.7 					"/>
				</defs>
				<clipPath id="SVGID_8_">
					<use xlink:href="#SVGID_7_"  style="overflow:visible;"/>
				</clipPath>
				<g class="st11">
					<text transform="matrix(0.9491 0 0 1 3064.2051 1506.3281)" class="st12 st9 st10">D</text>
				</g>
			</g>
		</g>
		<g>
			<g>
				<defs>
					<polyline id="SVGID_9_" points="2835.9,1336.2 3048.4,1483.6 3050.7,1476.3 3015.5,1411.9 3014.2,1285.2 2883.8,1287.9 
						2835.9,1336.2 					"/>
				</defs>
				<clipPath id="SVGID_10_">
					<use xlink:href="#SVGID_9_"  style="overflow:visible;"/>
				</clipPath>
				<g class="st13">
					<text transform="matrix(-0.9491 0 0 1 3034.7773 1506.5234)" class="st12 st9 st10">D</text>
				</g>
			</g>
			<g>
				<defs>
					<polygon id="SVGID_11_" points="2803.2,1308.7 3052.6,1491.9 3013.3,1514.3 2875.6,1510.7 2811.2,1425.8 					"/>
				</defs>
				<clipPath id="SVGID_12_">
					<use xlink:href="#SVGID_11_"  style="overflow:visible;"/>
				</clipPath>
				<g class="st14">
					<text transform="matrix(-0.9491 0 0 1 3034.791 1506.4395)" class="st0 st9 st10">D</text>
				</g>
			</g>
		</g>
	</g>
	<g>
		<g>
			<g>
				<defs>
					<polygon id="SVGID_13_" points="2620.6,1381.7 2666.1,1388.9 2689.8,1410.8 2700.5,1441.2 2702.8,1493 2583.9,1405.9 					"/>
				</defs>
				<clipPath id="SVGID_14_">
					<use xlink:href="#SVGID_13_"  style="overflow:visible;"/>
				</clipPath>
				<g class="st15">
					<text transform="matrix(-0.9491 0 0 1 2705.6875 1507.998)" class="st1 st9 st16">o</text>
				</g>
			</g>
			<g>
				<defs>
					<path id="SVGID_15_" d="M2649.1,1494.6c1.4,1.6,3.8,3.6,3.5,6c-0.2,2.2-2.4,3.7-3.2,4.2c-7.1,4.7-24.1,2.2-38.3-6.8
						c-5.3-3.4-9.1-7-11.4-9.3c-1.2-3.2-2.3-6.5-3.3-10.1c-2.7-9.1-4.3-17.6-5.3-25.3C2621.9,1472.8,2643.8,1488.5,2649.1,1494.6z"
						/>
				</defs>
				<clipPath id="SVGID_16_">
					<use xlink:href="#SVGID_15_"  style="overflow:visible;"/>
				</clipPath>
				<g class="st17">
					<text transform="matrix(-0.9491 -2.837899e-03 -2.990000e-03 1 2720.4136 1559.0128)" class="st0 st9 st18">o</text>
				</g>
			</g>
			<g>
				<defs>
					<path id="SVGID_17_" d="M2633.6,1470.5c6.8-7.4,6.2-21.8,9.8-21.8c1.1,0,1.7,1.3,2.1,1.6c9.7,7.4,46.6,35.6,46.4,35.8
						c0,0-0.3,0.1-0.3,0.1l-32.6,22.3l-45.6-0.9c-3.9-5-7.9-10-11.8-15c1.1-5.7,2.2-11.3,3.4-17
						C2621.7,1478.3,2629.6,1474.8,2633.6,1470.5z"/>
				</defs>
				<clipPath id="SVGID_18_">
					<use xlink:href="#SVGID_17_"  style="overflow:visible;"/>
				</clipPath>
				<g class="st19">
					<text transform="matrix(-0.9491 0 0 1 2705.5781 1506.9932)" class="st0 st9 st16">o</text>
				</g>
			</g>
			<g>
				<defs>
					<path id="SVGID_19_" d="M2628.7,1436.3c16.1,0.1,32.2,0.2,48.3,0.2c0.5,8.7,1,17.3,1.4,26c-3.2,0.1-6.6-0.1-10.2-0.7
						C2647.1,1458.4,2633.8,1443,2628.7,1436.3z"/>
				</defs>
				<clipPath id="SVGID_20_">
					<use xlink:href="#SVGID_19_"  style="overflow:visible;"/>
				</clipPath>
				<g class="st20">
					<text transform="matrix(-0.9491 -8.162518e-03 -8.600000e-03 1 2711.7715 1511.536)" class="st1 st9 st21">e</text>
				</g>
			</g>
		</g>
		<g>
			<g>
				<defs>
					<polygon id="SVGID_21_" points="2738.3,1381.7 2783.9,1388.9 2807.6,1410.8 2818.3,1441.2 2820.5,1493 2701.7,1405.9 					"/>
				</defs>
				<clipPath id="SVGID_22_">
					<use xlink:href="#SVGID_21_"  style="overflow:visible;"/>
				</clipPath>
				<g class="st22">
					<text transform="matrix(-0.9491 0 0 1 2823.4512 1507.998)" class="st1 st9 st16">o</text>
				</g>
			</g>
			<g>
				<defs>
					<path id="SVGID_23_" d="M2766.8,1494.6c1.4,1.6,3.8,3.6,3.5,6c-0.2,2.2-2.4,3.7-3.2,4.2c-7.1,4.7-24.1,2.2-38.3-6.8
						c-5.3-3.4-9.1-7-11.4-9.3c-1.2-3.2-2.3-6.5-3.3-10.1c-2.7-9.1-4.3-17.6-5.3-25.3C2739.7,1472.8,2761.6,1488.5,2766.8,1494.6z"
						/>
				</defs>
				<clipPath id="SVGID_24_">
					<use xlink:href="#SVGID_23_"  style="overflow:visible;"/>
				</clipPath>
				<g class="st23">
					<text transform="matrix(-0.9491 -2.837899e-03 -2.990000e-03 1 2838.1743 1559.0123)" class="st0 st9 st18">o</text>
				</g>
			</g>
			<g>
				<defs>
					<path id="SVGID_25_" d="M2751.4,1470.5c6.8-7.4,6.2-21.8,9.8-21.8c1.1,0,1.7,1.3,2.1,1.6c9.7,7.4,46.6,35.6,46.4,35.8
						c0,0-0.3,0.1-0.3,0.1l-32.6,22.3l-45.6-0.9c-3.9-5-7.9-10-11.8-15c1.1-5.7,2.2-11.3,3.4-17
						C2739.5,1478.3,2747.4,1474.8,2751.4,1470.5z"/>
				</defs>
				<clipPath id="SVGID_26_">
					<use xlink:href="#SVGID_25_"  style="overflow:visible;"/>
				</clipPath>
				<g class="st24">
					<text transform="matrix(-0.9491 0 0 1 2823.3379 1506.9932)" class="st0 st9 st16">o</text>
				</g>
			</g>
			<g>
				<defs>
					<path id="SVGID_27_" d="M2746.5,1436.3c16.1,0.1,32.2,0.2,48.3,0.2c0.5,8.7,1,17.3,1.4,26c-3.2,0.1-6.6-0.1-10.2-0.7
						C2764.9,1458.4,2751.6,1443,2746.5,1436.3z"/>
				</defs>
				<clipPath id="SVGID_28_">
					<use xlink:href="#SVGID_27_"  style="overflow:visible;"/>
				</clipPath>
				<g class="st25">
					<text transform="matrix(-0.9491 -8.162518e-03 -8.600000e-03 1 2829.5354 1511.5361)" class="st1 st9 st21">e</text>
				</g>
			</g>
		</g>
	</g>
	<g>
		<g>
			<g>
				<defs>
					<polygon id="SVGID_29_" points="3472.4,1381.7 3426.8,1388.9 3403.1,1410.8 3392.4,1441.2 3390.1,1493 3509,1405.9 					"/>
				</defs>
				<clipPath id="SVGID_30_">
					<use xlink:href="#SVGID_29_"  style="overflow:visible;"/>
				</clipPath>
				<g class="st26">
					<text transform="matrix(0.9491 0 0 1 3387.2148 1507.998)" class="st0 st9 st16">o</text>
				</g>
			</g>
			<g>
				<defs>
					<path id="SVGID_31_" d="M3443.8,1494.6c-1.4,1.6-3.8,3.6-3.5,6c0.2,2.2,2.4,3.7,3.2,4.2c7.1,4.7,24.1,2.2,38.3-6.8
						c5.3-3.4,9.1-7,11.4-9.3c1.2-3.2,2.3-6.5,3.3-10.1c2.7-9.1,4.3-17.6,5.3-25.3C3471,1472.8,3449.1,1488.5,3443.8,1494.6z"/>
				</defs>
				<clipPath id="SVGID_32_">
					<use xlink:href="#SVGID_31_"  style="overflow:visible;"/>
				</clipPath>
				<g class="st27">
					<text transform="matrix(0.9491 -2.837899e-03 2.990000e-03 1 3372.5769 1559.0875)" class="st1 st9 st18">o</text>
				</g>
			</g>
			<g>
				<defs>
					<path id="SVGID_33_" d="M3459.3,1470.5c-6.8-7.4-6.2-21.8-9.8-21.8c-1.1,0-1.7,1.3-2.1,1.6c-9.7,7.4-46.6,35.6-46.4,35.8
						c0,0,0.3,0.1,0.3,0.1l32.6,22.3l45.6-0.9c3.9-5,7.9-10,11.8-15c-1.1-5.7-2.2-11.3-3.4-17
						C3471.2,1478.3,3463.3,1474.8,3459.3,1470.5z"/>
				</defs>
				<clipPath id="SVGID_34_">
					<use xlink:href="#SVGID_33_"  style="overflow:visible;"/>
				</clipPath>
				<g class="st28">
					<text transform="matrix(0.9491 0 0 1 3387.3271 1506.9932)" class="st1 st9 st16">o</text>
				</g>
			</g>
			<g>
				<defs>
					<path id="SVGID_35_" d="M3464.2,1436.3c-16.1,0.1-32.2,0.2-48.3,0.2c-0.5,8.7-1,17.3-1.4,26c3.2,0.1,6.6-0.1,10.2-0.7
						C3445.8,1458.4,3459.1,1443,3464.2,1436.3z"/>
				</defs>
				<clipPath id="SVGID_36_">
					<use xlink:href="#SVGID_35_"  style="overflow:visible;"/>
				</clipPath>
				<g class="st29">
					<text transform="matrix(0.9491 -8.162518e-03 8.600000e-03 1 3381.0725 1511.4657)" class="st0 st9 st21">e</text>
				</g>
			</g>
		</g>
		<g>
			<g>
				<defs>
					<polygon id="SVGID_37_" points="3354.6,1381.7 3309,1388.9 3285.3,1410.8 3274.6,1441.2 3272.4,1493 3391.2,1405.9 					"/>
				</defs>
				<clipPath id="SVGID_38_">
					<use xlink:href="#SVGID_37_"  style="overflow:visible;"/>
				</clipPath>
				<g class="st30">
					<text transform="matrix(0.9491 0 0 1 3269.4521 1507.998)" class="st0 st9 st16">o</text>
				</g>
			</g>
			<g>
				<defs>
					<path id="SVGID_39_" d="M3326.1,1494.6c-1.4,1.6-3.8,3.6-3.5,6c0.2,2.2,2.4,3.7,3.2,4.2c7.1,4.7,24.1,2.2,38.3-6.8
						c5.3-3.4,9.1-7,11.4-9.3c1.2-3.2,2.3-6.5,3.3-10.1c2.7-9.1,4.3-17.6,5.3-25.3C3353.2,1472.8,3331.3,1488.5,3326.1,1494.6z"/>
				</defs>
				<clipPath id="SVGID_40_">
					<use xlink:href="#SVGID_39_"  style="overflow:visible;"/>
				</clipPath>
				<g class="st31">
					<text transform="matrix(0.9491 -2.837899e-03 2.990000e-03 1 3254.813 1559.0872)" class="st1 st9 st18">o</text>
				</g>
			</g>
			<g>
				<defs>
					<path id="SVGID_41_" d="M3341.5,1470.5c-6.8-7.4-6.2-21.8-9.8-21.8c-1.1,0-1.7,1.3-2.1,1.6c-9.7,7.4-46.6,35.6-46.4,35.8
						c0,0,0.3,0.1,0.3,0.1l32.6,22.3l45.6-0.9c3.9-5,7.9-10,11.8-15c-1.1-5.7-2.2-11.3-3.4-17
						C3353.4,1478.3,3345.5,1474.8,3341.5,1470.5z"/>
				</defs>
				<clipPath id="SVGID_42_">
					<use xlink:href="#SVGID_41_"  style="overflow:visible;"/>
				</clipPath>
				<g class="st32">
					<text transform="matrix(0.9491 0 0 1 3269.5645 1506.9932)" class="st1 st9 st16">o</text>
				</g>
			</g>
			<g>
				<defs>
					<path id="SVGID_43_" d="M3346.4,1436.3c-16.1,0.1-32.2,0.2-48.3,0.2c-0.5,8.7-1,17.3-1.4,26c3.2,0.1,6.6-0.1,10.2-0.7
						C3328,1458.4,3341.3,1443,3346.4,1436.3z"/>
				</defs>
				<clipPath id="SVGID_44_">
					<use xlink:href="#SVGID_43_"  style="overflow:visible;"/>
				</clipPath>
				<g class="st33">
					<text transform="matrix(0.9491 -8.162518e-03 8.600000e-03 1 3263.3098 1511.4668)" class="st0 st9 st21">e</text>
				</g>
			</g>
		</g>
	</g>
</g>
</svg>
