<svg xmlns="http://www.w3.org/2000/svg" xmlns:xlink="http://www.w3.org/1999/xlink" viewBox="0 0 3653.83 1101.58"><defs><style>.cls-1,.cls-22{fill:none;}.cls-2,.cls-25{fill:#f40c96;}.cls-24,.cls-3{fill:#03edff;}.cls-4{fill:#383838;}.cls-5{fill:url(#linear-gradient);}.cls-11,.cls-6{font-size:19.4px;font-family:LeagueSpartan-Bold, League Spartan;font-weight:700;}.cls-11,.cls-15,.cls-16,.cls-17,.cls-18,.cls-19,.cls-20,.cls-21,.cls-23,.cls-6{fill:#fff;}.cls-11,.cls-7{letter-spacing:0em;}.cls-8{letter-spacing:0em;}.cls-9{letter-spacing:0em;}.cls-10{letter-spacing:0em;}.cls-12{clip-path:url(#clip-path);}.cls-13{letter-spacing:0em;}.cls-14{fill:url(#linear-gradient-2);}.cls-15,.cls-17{font-size:90.88px;}.cls-15{font-family:MyriadPro-Regular, Myriad Pro;}.cls-16{font-size:76.49px;}.cls-16,.cls-17,.cls-20{font-family:Brightness-Regular, Brightness;}.cls-19,.cls-25{stroke:#03edff;}.cls-19,.cls-21,.cls-22,.cls-23,.cls-24,.cls-25{stroke-miterlimit:10;}.cls-20{font-size:139.34px;}.cls-21,.cls-22{stroke:#fff;}.cls-21{stroke-width:4px;}.cls-22{stroke-width:9px;}.cls-23{stroke:#383838;stroke-width:0.5px;}.cls-24{stroke:#f40c96;}.cls-24,.cls-25{stroke-width:0.25px;}.cls-26{fill:#bdfdff;}</style><linearGradient id="linear-gradient" x1="0.62" y1="-1700.95" x2="3653.38" y2="-1700.95" gradientTransform="translate(0 2766.99)" gradientUnits="userSpaceOnUse"><stop offset="0" stop-color="#f40c96"/><stop offset="1" stop-color="#03edff"/></linearGradient><clipPath id="clip-path"><path class="cls-1" d="M130.66,737.29h20.68l2,2q0,9.57,0,19.14l-1.55,1.56H130.67l-1.58-1.53V739.28Z"/></clipPath><linearGradient id="linear-gradient-2" x1="0.17" y1="-1778.28" x2="3653.83" y2="-1778.28" gradientTransform="matrix(1, 0, 0, -1, 0, -764.94)" xlink:href="#linear-gradient"/></defs><title>Asset 3</title><g id="Layer_2" data-name="Layer 2"><g id="Layer_1-2" data-name="Layer 1"><polygon points="3652.84 1036.57 0.27 1036.57 0.27 0 3652.84 0 3652.84 536.45 3652.84 1036.57"/><polygon class="cls-2" points="3556.05 1006.72 3555.52 1006.73 3605.33 943.65 3653.26 1006.37 3556.05 1006.72"/><polygon class="cls-3" points="3555.47 1014.61 3605.28 951.53 3653.21 1014.25 3555.47 1014.61"/><polygon class="cls-3" points="3653.12 949.12 3602.66 949.28 3650.49 1012.06 3653.04 1008.63 3653.12 949.12"/><polygon class="cls-4" points="3652.96 945.86 3593.53 946.15 3641.36 1008.94 3653.03 994.17 3652.96 945.86"/><polygon class="cls-2" points="3653.04 1000.99 3653.04 941.24 3602.78 941.4 3653.04 1000.99"/><polygon class="cls-2" points="3653.17 889.09 3649.81 884.7 3600 947.77 3653.2 947.77 3653.17 889.09"/><polygon class="cls-3" points="3653.15 895.14 3653.15 950.8 3609.14 950.89 3653.15 895.14"/><polygon class="cls-4" points="3653.17 955.42 3599.95 955.42 3653.17 889.09 3653.17 955.42"/><polygon class="cls-3" points="3649.37 892.65 3649.91 892.65 3600.01 955.65 3552.17 892.87 3649.37 892.65"/><path class="cls-4" d="M3543,889.74c2.52-.28,95-.24,97.74-.22l-49.9,63Z"/><polygon class="cls-2" points="3649.97 884.77 3600.06 947.77 3552.23 884.99 3649.97 884.77"/><polygon class="cls-2" points="2268.25 996.74 2318.06 933.66 2365.99 996.38 2268.25 996.74"/><path class="cls-4" d="M2375.17,990.61c-2.52.28-95,.37-97.74.35l49.81-63.07Z"/><polygon class="cls-3" points="2268.83 987.85 2268.3 987.85 2318.11 924.78 2366.04 987.5 2268.83 987.85"/><polygon class="cls-2" points="2181.54 996.21 2231.35 933.14 2279.28 995.86 2181.54 996.21"/><path class="cls-4" d="M2288.47,991.09c-2.52.28-95,.37-97.74.35l49.81-63.07Z"/><polygon class="cls-3" points="2182.13 988.33 2181.59 988.33 2231.4 925.26 2279.33 987.98 2182.13 988.33"/><polygon class="cls-2" points="2328.11 920.55 2278.21 983.56 2230.38 920.77 2328.11 920.55"/><polygon class="cls-3" points="2327.52 928.43 2328.06 928.43 2278.15 991.44 2230.32 928.65 2327.52 928.43"/><path class="cls-4" d="M2221.18,925.53c2.52-.28,95-.24,97.74-.22l-49.9,63Z"/><polygon class="cls-3" points="2092.31 988.47 2091.77 988.47 2141.58 925.4 2189.51 988.12 2092.31 988.47"/><polygon class="cls-2" points="2091.73 996.35 2141.54 933.28 2189.47 996 2091.73 996.35"/><path class="cls-4" d="M2198.65,991.23c-2.52.28-95,.37-97.74.35l49.81-63.07Z"/><polygon class="cls-3" points="2237.7 928.57 2238.24 928.57 2188.33 991.58 2140.5 928.79 2237.7 928.57"/><path class="cls-4" d="M2131.37,925.67c2.52-.28,95-.24,97.74-.22l-49.9,63Z"/><polygon class="cls-2" points="2238.3 920.69 2188.39 983.7 2140.56 920.91 2238.3 920.69"/><path class="cls-4" d="M2109,991.41c-2.52.28-95,.37-97.74.35l49.81-63.07Z"/><polygon class="cls-3" points="2002.69 988.65 2002.16 988.65 2051.97 925.58 2099.9 988.3 2002.69 988.65"/><polygon class="cls-2" points="2002.11 996.53 2051.92 933.46 2099.85 996.18 2002.11 996.53"/><polygon class="cls-2" points="2158.71 921.03 2108.8 984.03 2060.97 921.25 2158.71 921.03"/><polygon class="cls-4" points="2158.11 928.91 2158.65 928.91 2108.74 991.92 2060.91 929.13 2158.11 928.91"/><path class="cls-3" d="M2051.78,926c2.52-.28,95-.24,97.74-.22l-49.9,63Z"/><polygon class="cls-2" points="2067.74 921.27 2017.84 984.27 1970 921.49 2067.74 921.27"/><polygon class="cls-3" points="2067.15 929.15 2067.68 929.15 2017.78 992.15 1969.94 929.37 2067.15 929.15"/><path class="cls-4" d="M1960.81,926.25c2.52-.28,95-.24,97.74-.22l-49.9,63Z"/><polygon class="cls-2" points="2399.57 923.08 2449.38 860.01 2497.31 922.73 2399.57 923.08"/><path class="cls-4" d="M2506.49,918c-2.52.28-95,.37-97.74.35l49.81-63.07Z"/><polygon class="cls-3" points="2400.15 915.2 2399.61 915.2 2449.42 852.13 2497.35 914.84 2400.15 915.2"/><polygon class="cls-2" points="2312.86 923.56 2362.67 860.49 2410.6 923.2 2312.86 923.56"/><path class="cls-4" d="M2419.78,918.44c-2.52.28-95,.37-97.74.35l49.81-63.07Z"/><polygon class="cls-3" points="2313.44 915.67 2312.91 915.68 2362.72 852.6 2410.64 915.32 2313.44 915.67"/><polygon class="cls-2" points="2459.43 847.9 2409.53 910.9 2361.69 848.12 2459.43 847.9"/><polygon class="cls-3" points="2458.84 855.78 2459.37 855.78 2409.47 918.78 2361.63 856 2458.84 855.78"/><path class="cls-4" d="M2352.5,852.87c2.52-.28,95-.24,97.74-.22l-49.9,63Z"/><polygon class="cls-3" points="2223.62 915.81 2223.09 915.82 2272.9 852.74 2320.83 915.46 2223.62 915.81"/><polygon class="cls-2" points="2223.04 923.7 2272.85 860.62 2320.78 923.34 2223.04 923.7"/><path class="cls-4" d="M2330,918.57c-2.52.28-95,.37-97.74.35L2282,855.86Z"/><polygon class="cls-3" points="2369.02 855.92 2369.55 855.92 2319.65 918.92 2271.81 856.14 2369.02 855.92"/><path class="cls-4" d="M2262.68,853c2.52-.28,95-.24,97.74-.22l-49.9,63Z"/><polygon class="cls-2" points="2369.61 848.03 2319.71 911.04 2271.87 848.26 2369.61 848.03"/><path class="cls-4" d="M2240.35,918.75c-2.52.28-95,.37-97.74.35L2192.42,856Z"/><polygon class="cls-3" points="2134.01 915.99 2133.47 916 2183.28 852.92 2231.21 915.64 2134.01 915.99"/><polygon class="cls-2" points="2133.43 923.88 2183.24 860.8 2231.17 923.52 2133.43 923.88"/><polygon class="cls-2" points="2043.61 924.01 2093.42 860.94 2141.35 923.66 2043.61 924.01"/><path class="cls-4" d="M2150.53,918.89c-2.52.28-95,.37-97.74.35l49.81-63.07Z"/><polygon class="cls-3" points="2044.19 916.13 2043.66 916.13 2093.47 853.06 2141.4 915.78 2044.19 916.13"/><polygon class="cls-2" points="2290.02 848.38 2240.12 911.38 2192.28 848.6 2290.02 848.38"/><polygon class="cls-4" points="2289.43 856.26 2289.97 856.25 2240.06 919.26 2192.22 856.48 2289.43 856.26"/><path class="cls-3" d="M2183.09,853.35c2.52-.28,95-.24,97.74-.22l-49.9,63Z"/><polygon class="cls-2" points="2199.05 848.61 2149.15 911.62 2101.32 848.84 2199.05 848.61"/><polygon class="cls-3" points="2198.46 856.5 2199 856.49 2149.09 919.5 2101.26 856.72 2198.46 856.5"/><path class="cls-4" d="M2092.12,853.59c2.52-.28,95-.24,97.74-.22l-49.9,63Z"/><polygon class="cls-3" points="2414.45 931.46 2414.98 931.46 2365.08 994.46 2317.24 931.68 2414.45 931.46"/><path class="cls-4" d="M2308.11,927.55c2.52-.28,95-.24,97.74-.22l-49.9,63Z"/><polygon class="cls-2" points="2415.04 922.58 2365.13 985.58 2317.3 922.8 2415.04 922.58"/><polygon class="cls-3" points="2363.63 987.51 2363.09 987.51 2412.9 924.44 2460.83 987.16 2363.63 987.51"/><polygon class="cls-2" points="2363.04 996.39 2412.85 933.32 2460.78 996.04 2363.04 996.39"/><path class="cls-4" d="M2470,990.27c-2.52.28-95,.37-97.74.35L2422,927.56Z"/><polygon class="cls-3" points="2510.01 932.46 2510.54 932.46 2460.64 995.46 2412.8 932.68 2510.01 932.46"/><path class="cls-4" d="M2402.67,927.55c2.52-.28,95-.24,97.74-.22l-49.9,63Z"/><polygon class="cls-2" points="2509.6 922.58 2459.69 985.58 2411.86 922.8 2509.6 922.58"/><path class="cls-4" d="M2374.67,845.14c-2.52.28-95,.37-97.74.35l49.81-63.07Z"/><polygon class="cls-3" points="2268.33 842.38 2267.8 842.38 2317.61 779.31 2365.54 842.03 2268.33 842.38"/><polygon class="cls-2" points="2267.75 850.26 2317.56 787.19 2365.49 849.91 2267.75 850.26"/><polygon class="cls-3" points="2358.61 845.39 2358.08 845.39 2407.89 782.32 2455.82 845.04 2358.61 845.39"/><polygon class="cls-4" points="2358.03 853.27 2407.84 790.2 2455.77 852.92 2358.03 853.27"/><path class="cls-2" d="M2465,848.15c-2.52.28-95,.37-97.74.35L2417,785.43Z"/><polygon class="cls-2" points="2424.01 774.45 2374.11 837.45 2326.27 774.67 2424.01 774.45"/><polygon class="cls-4" points="2423.42 782.33 2423.95 782.33 2374.05 845.33 2326.21 782.55 2423.42 782.33"/><path class="cls-3" d="M2317.08,779.42c2.52-.28,95-.24,97.74-.22l-49.9,63Z"/><polygon class="cls-2" points="2524.17 781.69 2474.26 844.7 2426.43 781.92 2524.17 781.69"/><polygon class="cls-3" points="2523.57 789.58 2524.11 789.58 2474.21 852.58 2426.37 789.8 2523.57 789.58"/><path class="cls-4" d="M2417.24,786.67c2.52-.28,95-.24,97.74-.22l-49.9,63Z"/><polygon class="cls-2" points="2473.31 860.6 2523.12 797.53 2571.05 860.25 2473.31 860.6"/><path class="cls-4" d="M2580.23,855.48c-2.52.28-95,.37-97.74.35l49.81-63.07Z"/><polygon class="cls-3" points="2473.89 852.72 2473.35 852.72 2523.16 789.65 2571.09 852.37 2473.89 852.72"/><polygon class="cls-2" points="2621.49 781.77 2571.58 844.78 2523.74 782 2621.49 781.77"/><polygon class="cls-4" points="2620.89 789.66 2621.43 789.65 2571.52 852.66 2523.69 789.88 2620.89 789.66"/><path class="cls-3" d="M2514.55,786.75c2.52-.28,95-.24,97.74-.22l-49.9,63Z"/><path class="cls-3" d="M2678.4,854.07c-2.52.28-95,.37-97.74.35l49.81-63.07Z"/><polygon class="cls-2" points="2571.48 859.19 2621.29 796.12 2669.22 858.83 2571.48 859.19"/><polygon class="cls-4" points="2572.06 851.3 2571.53 851.31 2621.34 788.23 2669.26 850.95 2572.06 851.3"/><polygon class="cls-2" points="473.7 1001.79 523.39 938.86 571.2 1001.43 473.7 1001.79"/><path class="cls-4" d="M580.37,996.68c-2.51.28-94.76.37-97.5.35l49.69-62.92Z"/><polygon class="cls-3" points="474.28 993.92 473.75 993.92 523.44 931 571.25 993.57 474.28 993.92"/><polygon class="cls-2" points="387.2 1002.26 436.89 939.34 484.7 1001.91 387.2 1002.26"/><path class="cls-4" d="M493.87,997.15c-2.51.28-94.76.37-97.5.35l49.69-62.92Z"/><polygon class="cls-3" points="387.78 994.4 387.25 994.4 436.94 931.48 484.75 994.05 387.78 994.4"/><polygon class="cls-2" points="533.42 926.78 483.63 989.64 435.91 927 533.42 926.78"/><polygon class="cls-3" points="532.83 934.65 533.36 934.64 483.58 997.5 435.86 934.87 532.83 934.65"/><path class="cls-4" d="M426.74,931.75c2.51-.27,94.77-.24,97.51-.22l-49.78,62.85Z"/><polygon class="cls-3" points="298.18 994.54 297.64 994.54 347.33 931.62 395.15 994.18 298.18 994.54"/><polygon class="cls-2" points="297.6 1002.4 347.29 939.48 395.1 1002.05 297.6 1002.4"/><path class="cls-4" d="M404.26,997.29c-2.51.28-94.76.37-97.5.35l49.69-62.92Z"/><polygon class="cls-3" points="443.22 934.79 443.76 934.78 393.97 997.64 346.25 935 443.22 934.79"/><path class="cls-4" d="M337.14,931.89c2.51-.27,94.77-.24,97.51-.22l-49.78,62.85Z"/><polygon class="cls-2" points="443.82 926.92 394.03 989.77 346.31 927.14 443.82 926.92"/><path class="cls-4" d="M314.87,997.47c-2.51.28-94.76.37-97.5.35l49.69-62.92Z"/><polygon class="cls-3" points="208.78 994.72 208.25 994.72 257.94 931.8 305.75 994.37 208.78 994.72"/><polygon class="cls-2" points="208.2 1002.58 257.89 939.66 305.7 1002.23 208.2 1002.58"/><polygon class="cls-2" points="364.42 927.26 314.63 990.11 266.91 927.48 364.42 927.26"/><polygon class="cls-4" points="363.83 935.12 364.36 935.12 314.58 997.98 266.86 935.34 363.83 935.12"/><path class="cls-3" d="M257.74,932.23c2.51-.27,94.77-.24,97.51-.22l-49.78,62.85Z"/><polygon class="cls-2" points="273.67 927.5 223.88 990.35 176.16 927.72 273.67 927.5"/><polygon class="cls-3" points="273.08 935.36 273.61 935.36 223.83 998.21 176.1 935.58 273.08 935.36"/><path class="cls-4" d="M167,932.46c2.51-.27,94.77-.24,97.51-.22L214.71,995.1Z"/><polygon class="cls-2" points="518.2 929.78 567.89 866.86 615.7 929.43 518.2 929.78"/><path class="cls-4" d="M624.87,924.67c-2.51.28-94.76.37-97.5.35l49.69-62.92Z"/><polygon class="cls-3" points="518.78 921.92 518.25 921.92 567.94 859 615.75 921.57 518.78 921.92"/><polygon class="cls-3" points="429.18 922.05 428.64 922.06 478.33 859.14 526.15 921.7 429.18 922.05"/><polygon class="cls-2" points="428.6 929.92 478.29 867 526.1 929.57 428.6 929.92"/><path class="cls-4" d="M535.26,924.81c-2.51.28-94.76.37-97.5.35l49.69-62.92Z"/><path class="cls-4" d="M445.87,925c-2.51.28-94.76.37-97.5.35l49.69-62.92Z"/><polygon class="cls-3" points="339.78 922.23 339.25 922.24 388.94 859.32 436.75 921.88 339.78 922.23"/><polygon class="cls-2" points="339.2 930.1 388.89 867.18 436.7 929.75 339.2 930.1"/><polygon class="cls-2" points="249.6 930.24 299.29 867.32 347.1 929.88 249.6 930.24"/><path class="cls-4" d="M356.26,925.13c-2.51.28-94.76.37-97.5.35l49.69-62.92Z"/><polygon class="cls-3" points="250.18 922.37 249.64 922.38 299.33 859.45 347.15 922.02 250.18 922.37"/><polygon class="cls-2" points="495.42 854.78 445.63 917.63 397.91 855 495.42 854.78"/><polygon class="cls-4" points="494.83 862.64 495.36 862.64 445.58 925.5 397.86 862.86 494.83 862.64"/><path class="cls-3" d="M388.74,859.74c2.51-.27,94.77-.24,97.51-.22l-49.78,62.85Z"/><polygon class="cls-2" points="404.67 855.02 354.88 917.87 307.16 855.24 404.67 855.02"/><polygon class="cls-3" points="404.08 862.88 404.61 862.88 354.83 925.73 307.11 863.1 404.08 862.88"/><path class="cls-4" d="M298,860c2.51-.27,94.77-.24,97.51-.22l-49.78,62.85Z"/><polygon class="cls-3" points="619.54 936.67 620.08 936.66 570.29 999.52 522.57 936.89 619.54 936.67"/><path class="cls-4" d="M513.46,933.77c2.51-.27,94.77-.24,97.51-.22L561.18,996.4Z"/><polygon class="cls-2" points="620.13 928.8 570.35 991.66 522.63 929.02 620.13 928.8"/><polygon class="cls-3" points="568.84 993.58 568.31 993.59 618 930.66 665.82 993.23 568.84 993.58"/><polygon class="cls-2" points="568.26 1002.45 617.96 939.52 665.77 1002.09 568.26 1002.45"/><path class="cls-4" d="M674.93,996.34c-2.51.28-94.76.37-97.5.35l49.69-62.92Z"/><polygon class="cls-3" points="713.88 937.67 714.41 937.66 664.63 1000.52 616.9 937.89 713.88 937.67"/><path class="cls-4" d="M607.79,933.77c2.51-.27,94.77-.24,97.51-.22L655.51,996.4Z"/><polygon class="cls-2" points="714.47 928.8 664.68 991.66 616.96 929.02 714.47 928.8"/><path class="cls-4" d="M138.84,996.93c-2.51.28-94.76.37-97.5.35L91,934.36Z"/><polygon class="cls-3" points="32.76 994.17 32.22 994.18 81.91 931.25 129.73 993.82 32.76 994.17"/><polygon class="cls-2" points="32.18 1002.04 81.87 939.12 129.68 1001.68 32.18 1002.04"/><polygon class="cls-2" points="179.48 931.01 129.69 993.86 81.97 931.23 179.48 931.01"/><path class="cls-4" d="M72.81,936c2.51-.27,94.77-.24,97.51-.22l-49.78,62.85Z"/><polygon class="cls-3" points="177.89 938.87 178.42 938.87 128.64 1001.73 80.92 939.09 177.89 938.87"/><polygon class="cls-4" points="71.38 943.51 121.07 880.59 168.89 943.16 71.38 943.51"/><path class="cls-3" d="M178,938.41c-2.51.28-94.76.37-97.5.35l49.69-62.92Z"/><polygon class="cls-2" points="71.96 935.65 71.43 935.65 121.12 872.73 168.93 935.3 71.96 935.65"/><polygon class="cls-3" points="120.56 880.78 121.09 880.78 71.31 943.63 23.59 881 120.56 880.78"/><path class="cls-4" d="M14.48,877.88c2.51-.27,94.77-.24,97.51-.22L62.2,940.51Z"/><polygon class="cls-2" points="121.15 872.92 71.36 935.77 23.64 873.14 121.15 872.92"/><path class="cls-4" d="M119.36,868.77c-2.51.28-94.76.37-97.5.35l49.69-62.92Z"/><polygon class="cls-3" points="13.27 866.02 12.74 866.02 62.43 803.1 110.24 865.67 13.27 866.02"/><polygon class="cls-2" points="12.69 873.88 62.38 810.96 110.19 873.53 12.69 873.88"/><path class="cls-5" d="M.62,1047.57l17.67-.51,14.51,18,148.3.67,8.09-12.12,14,21,6-8.92H723.31l14,21h16.12L782.52,1043l14.05,21.05H1038l4.59-6.88,4.62,6.91h135.22l24.07,36.05,9.05-13.56h59.06l22.07-33.07h53.15l12,18h122.28l9.81-14.7,15,22.44,5.18-7.76h271.8l20,30,40-59.92,16,23.93h69.25l15.41-23.09,38.83,58.17,22.31-29.64h269.65l6,8.95,16-23.9,9.92,14.86,169.06-.54,15.51-17.9,86.16.23,13.64,33.07,56,.59,11,14,22.33-37.67,61.58.74,4.87-7.29,4.93,7.38h240.75l14-21,29,43.51h17.1l14.08-21.09h515.12l5.06,7.58,13.09-19.6,8,12h42.79v-34.51H.62Z"/><path class="cls-2" d="M3652.57,489.72v-3.79l-2020-.4-78.29-154.44L0,330.65v11.44l825.36,2.28-.09-9.75,727.19.63,76.66,153.9Z"/><image width="64" height="64" transform="translate(129.02 811.15) scale(0.39 0.37)" xlink:href="../../iconfinder_social_media_applications_3-instagram_4102579.png"/><image width="64" height="64" transform="translate(129.02 773) scale(0.39 0.37)" xlink:href="../../iconfinder_social-twitch-square2_4590797.png"/><text class="cls-6" transform="translate(162.01 830.52) scale(0.93 1)"><tspan class="cls-7">/</tspan><tspan class="cls-8" x="11.89" y="0">k</tspan><tspan class="cls-9" x="24.42" y="0">a</tspan><tspan x="37.64" y="0">y</tspan><tspan class="cls-10" x="49.92" y="0">l</tspan><tspan class="cls-9" x="55.74" y="0">a</tspan><tspan class="cls-10" x="68.95" y="0">j</tspan><tspan class="cls-8" x="74.77" y="0">k</tspan><tspan class="cls-10" x="87.3" y="0">l</tspan><tspan class="cls-9" x="93.12" y="0">a</tspan><tspan x="106.33" y="0">b</tspan></text><text class="cls-6" transform="translate(162.01 792.22) scale(0.93 1)"><tspan class="cls-7">/</tspan><tspan class="cls-8" x="11.89" y="0">k</tspan><tspan class="cls-9" x="24.42" y="0">a</tspan><tspan x="37.64" y="0">y</tspan><tspan class="cls-10" x="49.92" y="0">l</tspan><tspan class="cls-9" x="55.74" y="0">a</tspan><tspan class="cls-10" x="68.95" y="0">j</tspan><tspan class="cls-8" x="74.77" y="0">k</tspan><tspan class="cls-10" x="87.3" y="0">l</tspan><tspan class="cls-9" x="93.12" y="0">a</tspan><tspan x="106.33" y="0">b</tspan></text><text class="cls-11" transform="translate(161.34 756.07) scale(0.93 1)">/<tspan class="cls-8" x="11.89" y="0">kaylajk</tspan><tspan class="cls-10" x="87.26" y="0">l</tspan><tspan class="cls-9" x="93.08" y="0">a</tspan><tspan class="cls-8" x="106.29" y="0">b</tspan></text><g class="cls-12"><image width="64" height="64" transform="translate(128.69 735.33) scale(0.39)" xlink:href="../../iconfinder_28-deviantart_5462595.png"/></g><image width="64" height="64" transform="translate(129.02 698.53) scale(0.39 0.37)" xlink:href="../../iconfinder_YouTube_2613309.png"/><text class="cls-6" transform="translate(161.68 719.07) scale(0.93 1)"><tspan class="cls-7">/</tspan><tspan class="cls-8" x="11.89" y="0">k’s</tspan><tspan class="cls-10" x="39.61" y="0">l</tspan><tspan class="cls-13" x="45.43" y="0">a</tspan><tspan x="58.64" y="0">b</tspan></text><path class="cls-14" d="M.77,994.34c1194.51,1.77,3629.65,2.19,3652.71.63l.35,35.7L.17,1032.33Z"/><path d="M2587.69,523.21"/><text class="cls-15" transform="translate(2941.13 928.23) scale(0.95 1)">&apos;</text><text class="cls-16" transform="matrix(-0.95, 0, 0, 1, 3264.01, 974.01)">o</text><text class="cls-17" transform="matrix(-0.95, 0, 0, 1, 3013, 929.84)">s</text><rect class="cls-18" x="2877.48" y="812.31" width="28.63" height="156.62"/><path class="cls-2" d="M2995.76,814.34l1.88,13.49-112.31,72.83,112.43,73.49v14.71l-135.54-88.19Z"/><path class="cls-19" d="M2985.45,798l1.88,13.49L2875,884.31l112.43,73.49v14.71l-135.54-88.19Z"/><path class="cls-4" d="M2978.91,814.35l1.88,13.49-112.31,72.83,112.43,73.49v14.71l-135.54-88.19Z"/><text class="cls-20" transform="translate(3081.95 971.81) scale(0.95 1)">i</text><path class="cls-21" d="M3173.27,922.65l-17.45-6.74a1.77,1.77,0,0,1-1-2.4h0a2.09,2.09,0,0,1,2.62-1l17.45,6.74a1.77,1.77,0,0,1,1,2.4h0A2.09,2.09,0,0,1,3173.27,922.65Z"/><path class="cls-22" d="M3164.43,928.27c10.27,5.53,14.68,17.28,9.86,27.57-5.25,11.21-19.46,16.44-31.75,11.69s-18-17.68-12.73-28.89c4.73-10.09,16.72-15.34,28-12.82"/><path class="cls-18" d="M3161.29,914.24l1.58.61a1,1,0,0,1,.56,1.34l-5.15,11a1.16,1.16,0,0,1-1.45.56l-1.58-.61a1,1,0,0,1-.56-1.34l5.15-11A1.16,1.16,0,0,1,3161.29,914.24Z"/><path class="cls-23" d="M3163.82,927.35l4.39-9.4a1.12,1.12,0,0,1,1.42-.49l1.44.55a1,1,0,0,1,.6,1.27l-5.15,11a1.12,1.12,0,0,1-1.42.49l-1.44-.55a1,1,0,0,1-.6-1.27l.76-1.63"/><path class="cls-24" d="M3155.58,938.6a1.68,1.68,0,0,1-2.11.77,1.42,1.42,0,0,1-.85-1.92,1.68,1.68,0,0,1,2.11-.77A1.42,1.42,0,0,1,3155.58,938.6Z"/><path class="cls-25" d="M3164,939.31a2.68,2.68,0,0,1-3.38,1.24,2.27,2.27,0,0,1-1.36-3.07,2.68,2.68,0,0,1,3.38-1.24A2.27,2.27,0,0,1,3164,939.31Z"/><path class="cls-2" d="M3157.83,944.24a2.35,2.35,0,0,1-3,1.08,2,2,0,0,1-1.19-2.69,2.35,2.35,0,0,1,3-1.08A2,2,0,0,1,3157.83,944.24Z"/><path class="cls-2" d="M3160.19,933.22a1.84,1.84,0,0,1-2.33.85,1.56,1.56,0,0,1-.94-2.11,1.84,1.84,0,0,1,2.33-.85A1.56,1.56,0,0,1,3160.19,933.22Z"/><path class="cls-3" d="M3164,925.14a1.84,1.84,0,0,1-2.33.85,1.56,1.56,0,0,1-.94-2.11A1.84,1.84,0,0,1,3163,923,1.56,1.56,0,0,1,3164,925.14Z"/><path class="cls-2" d="M3164.53,909.76a2.51,2.51,0,0,1,3.17-1.16,2.13,2.13,0,0,1,1.28,2.88,2.51,2.51,0,0,1-3.17,1.16A2.13,2.13,0,0,1,3164.53,909.76Z"/><path class="cls-3" d="M3167.94,904.72a1.51,1.51,0,0,1-1.9.7,1.28,1.28,0,0,1-.77-1.73,1.51,1.51,0,0,1,1.9-.7A1.28,1.28,0,0,1,3167.94,904.72Z"/><path class="cls-26" d="M3172.25,948.07c1.82,5-5.3,12.79-13.61,14.84-9.18,2.27-19.56-2.53-22.91-8.86-3.48-6.58-1-15.23-1.09-14.56-.36,3.22,5.48,7.82,11.27,8.82,9.48,1.64,15.19-7,22.29-4C3168.58,944.42,3171.37,945.63,3172.25,948.07Z"/><path class="cls-2" d="M3137.4,936.43c-5.24,2.29-6.47,12.33-2.33,19.2,4.57,7.58,15.56,11.05,22.91,8.86,7.64-2.28,12.79-9.9,12.31-9.39-2.3,2.47-10,1.84-14.81-1.26-7.87-5.07-5-14.79-12.25-17.39A8.57,8.57,0,0,0,3137.4,936.43Z"/><text class="cls-17" transform="matrix(-0.95, 0, 0, 1, 3190.75, 971.51)">i</text><text class="cls-20" transform="translate(3197.87 971.71) scale(0.95 1)">i</text></g></g></svg>