<svg xmlns="http://www.w3.org/2000/svg" xmlns:xlink="http://www.w3.org/1999/xlink" viewBox="0 0 3653.67 1071.33"><defs><style>.cls-1,.cls-22{fill:none;}.cls-2,.cls-25{fill:#f40c96;}.cls-24,.cls-3{fill:#03edff;}.cls-4{fill:#383838;}.cls-5{fill:url(#linear-gradient);}.cls-11,.cls-6{font-size:19.4px;font-family:LeagueSpartan-Bold, League Spartan;font-weight:700;}.cls-11,.cls-15,.cls-16,.cls-17,.cls-18,.cls-19,.cls-20,.cls-21,.cls-23,.cls-6{fill:#fff;}.cls-11,.cls-7{letter-spacing:0em;}.cls-8{letter-spacing:0em;}.cls-9{letter-spacing:0em;}.cls-10{letter-spacing:0em;}.cls-12{clip-path:url(#clip-path);}.cls-13{letter-spacing:0em;}.cls-14{fill:url(#linear-gradient-2);}.cls-15,.cls-17{font-size:153.27px;}.cls-15{font-family:MyriadPro-Regular, Myriad Pro;}.cls-16{font-size:129px;}.cls-16,.cls-17,.cls-20{font-family:Brightness-Regular, Brightness;}.cls-19,.cls-25{stroke:#03edff;}.cls-19,.cls-21,.cls-22,.cls-23,.cls-24,.cls-25{stroke-miterlimit:10;}.cls-20{font-size:235px;}.cls-21,.cls-22{stroke:#fff;}.cls-21{stroke-width:4px;}.cls-22{stroke-width:9px;}.cls-23{stroke:#383838;stroke-width:0.5px;}.cls-24{stroke:#f40c96;}.cls-24,.cls-25{stroke-width:0.25px;}.cls-26{fill:#bdfdff;}</style><linearGradient id="linear-gradient" x1="0.33" y1="-1765.97" x2="3653.1" y2="-1765.97" gradientTransform="matrix(1, 0, 0, -1, 0, -764.94)" gradientUnits="userSpaceOnUse"><stop offset="0" stop-color="#f40c96"/><stop offset="1" stop-color="#03edff"/></linearGradient><clipPath id="clip-path"><path class="cls-1" d="M131,737.29h20.68l2,2q0,9.57,0,19.14l-1.55,1.56H131l-1.58-1.53V739.28Z"/></clipPath><linearGradient id="linear-gradient-2" x1="0" y1="-1817.28" x2="3653.67" y2="-1817.28" xlink:href="#linear-gradient"/></defs><title>Asset 3</title><g id="Layer_2" data-name="Layer 2"><g id="Layer_1-2" data-name="Layer 1"><polygon points="3653.17 1036.57 0.61 1036.57 0.61 0 3653.17 0 3653.17 536.45 3653.17 1036.57"/><polygon class="cls-2" points="3556.39 1006.72 3555.85 1006.73 3605.66 943.65 3653.59 1006.37 3556.39 1006.72"/><polygon class="cls-3" points="3555.8 1014.61 3605.62 951.53 3653.54 1014.25 3555.8 1014.61"/><polygon class="cls-3" points="3653.46 949.12 3602.99 949.28 3650.83 1012.06 3653.37 1008.63 3653.46 949.12"/><polygon class="cls-4" points="3653.29 945.86 3593.86 946.15 3641.69 1008.94 3653.36 994.17 3653.29 945.86"/><polygon class="cls-2" points="3653.37 1000.99 3653.37 941.24 3603.11 941.4 3653.37 1000.99"/><polygon class="cls-2" points="3653.5 889.09 3650.14 884.7 3600.33 947.77 3653.53 947.77 3653.5 889.09"/><polygon class="cls-3" points="3653.49 895.14 3653.49 950.8 3609.47 950.89 3653.49 895.14"/><polygon class="cls-4" points="3653.5 955.42 3600.29 955.42 3653.5 889.09 3653.5 955.42"/><polygon class="cls-3" points="3649.71 892.65 3650.24 892.65 3600.34 955.65 3552.5 892.87 3649.71 892.65"/><path class="cls-4" d="M3543.37,889.74c2.52-.28,95-.24,97.74-.22l-49.9,63Z"/><polygon class="cls-2" points="3650.3 884.77 3600.4 947.77 3552.56 884.99 3650.3 884.77"/><polygon class="cls-2" points="2268.58 996.74 2318.39 933.66 2366.32 996.38 2268.58 996.74"/><path class="cls-4" d="M2375.51,990.61c-2.52.28-95,.37-97.74.35l49.81-63.07Z"/><polygon class="cls-3" points="2269.17 987.85 2268.63 987.85 2318.44 924.78 2366.37 987.5 2269.17 987.85"/><polygon class="cls-2" points="2181.88 996.21 2231.69 933.14 2279.61 995.86 2181.88 996.21"/><path class="cls-4" d="M2288.8,991.09c-2.52.28-95,.37-97.74.35l49.81-63.07Z"/><polygon class="cls-3" points="2182.46 988.33 2181.92 988.33 2231.73 925.26 2279.66 987.98 2182.46 988.33"/><polygon class="cls-2" points="2328.45 920.55 2278.54 983.56 2230.71 920.77 2328.45 920.55"/><polygon class="cls-3" points="2327.85 928.43 2328.39 928.43 2278.48 991.44 2230.65 928.65 2327.85 928.43"/><path class="cls-4" d="M2221.52,925.53c2.52-.28,95-.24,97.74-.22l-49.9,63Z"/><polygon class="cls-3" points="2092.64 988.47 2092.1 988.47 2141.91 925.4 2189.84 988.12 2092.64 988.47"/><polygon class="cls-2" points="2092.06 996.35 2141.87 933.28 2189.8 996 2092.06 996.35"/><path class="cls-4" d="M2199,991.23c-2.52.28-95,.37-97.74.35l49.81-63.07Z"/><polygon class="cls-3" points="2238.03 928.57 2238.57 928.57 2188.67 991.58 2140.83 928.79 2238.03 928.57"/><path class="cls-4" d="M2131.7,925.67c2.52-.28,95-.24,97.74-.22l-49.9,63Z"/><polygon class="cls-2" points="2238.63 920.69 2188.72 983.7 2140.89 920.91 2238.63 920.69"/><path class="cls-4" d="M2109.37,991.41c-2.52.28-95,.37-97.74.35l49.81-63.07Z"/><polygon class="cls-3" points="2003.03 988.65 2002.49 988.65 2052.3 925.58 2100.23 988.3 2003.03 988.65"/><polygon class="cls-2" points="2002.44 996.53 2052.26 933.46 2100.18 996.18 2002.44 996.53"/><polygon class="cls-2" points="2159.04 921.03 2109.14 984.03 2061.3 921.25 2159.04 921.03"/><polygon class="cls-4" points="2158.45 928.91 2158.98 928.91 2109.08 991.92 2061.24 929.13 2158.45 928.91"/><path class="cls-3" d="M2052.11,926c2.52-.28,95-.24,97.74-.22l-49.9,63Z"/><polygon class="cls-2" points="2068.07 921.27 2018.17 984.27 1970.33 921.49 2068.07 921.27"/><polygon class="cls-3" points="2067.48 929.15 2068.01 929.15 2018.11 992.15 1970.27 929.37 2067.48 929.15"/><path class="cls-4" d="M1961.14,926.25c2.52-.28,95-.24,97.74-.22L2009,989Z"/><polygon class="cls-2" points="2399.9 923.08 2449.71 860.01 2497.64 922.73 2399.9 923.08"/><path class="cls-4" d="M2506.82,918c-2.52.28-95,.37-97.74.35l49.81-63.07Z"/><polygon class="cls-3" points="2400.48 915.2 2399.95 915.2 2449.76 852.13 2497.68 914.84 2400.48 915.2"/><polygon class="cls-2" points="2313.19 923.56 2363 860.49 2410.93 923.2 2313.19 923.56"/><path class="cls-4" d="M2420.11,918.44c-2.52.28-95,.37-97.74.35l49.81-63.07Z"/><polygon class="cls-3" points="2313.77 915.67 2313.24 915.68 2363.05 852.6 2410.98 915.32 2313.77 915.67"/><polygon class="cls-2" points="2459.76 847.9 2409.86 910.9 2362.02 848.12 2459.76 847.9"/><polygon class="cls-3" points="2459.17 855.78 2459.7 855.78 2409.8 918.78 2361.96 856 2459.17 855.78"/><path class="cls-4" d="M2352.83,852.87c2.52-.28,95-.24,97.74-.22l-49.9,63Z"/><polygon class="cls-3" points="2223.95 915.81 2223.42 915.82 2273.23 852.74 2321.16 915.46 2223.95 915.81"/><polygon class="cls-2" points="2223.37 923.7 2273.18 860.62 2321.11 923.34 2223.37 923.7"/><path class="cls-4" d="M2330.3,918.57c-2.52.28-95,.37-97.74.35l49.81-63.07Z"/><polygon class="cls-3" points="2369.35 855.92 2369.89 855.92 2319.98 918.92 2272.15 856.14 2369.35 855.92"/><path class="cls-4" d="M2263,853c2.52-.28,95-.24,97.74-.22l-49.9,63Z"/><polygon class="cls-2" points="2369.94 848.03 2320.04 911.04 2272.2 848.26 2369.94 848.03"/><path class="cls-4" d="M2240.68,918.75c-2.52.28-95,.37-97.74.35L2192.75,856Z"/><polygon class="cls-3" points="2134.34 915.99 2133.81 916 2183.62 852.92 2231.55 915.64 2134.34 915.99"/><polygon class="cls-2" points="2133.76 923.88 2183.57 860.8 2231.5 923.52 2133.76 923.88"/><polygon class="cls-2" points="2043.94 924.01 2093.75 860.94 2141.68 923.66 2043.94 924.01"/><path class="cls-4" d="M2150.87,918.89c-2.52.28-95,.37-97.74.35l49.81-63.07Z"/><polygon class="cls-3" points="2044.53 916.13 2043.99 916.13 2093.8 853.06 2141.73 915.78 2044.53 916.13"/><polygon class="cls-2" points="2290.36 848.38 2240.45 911.38 2192.62 848.6 2290.36 848.38"/><polygon class="cls-4" points="2289.76 856.26 2290.3 856.25 2240.39 919.26 2192.56 856.48 2289.76 856.26"/><path class="cls-3" d="M2183.42,853.35c2.52-.28,95-.24,97.74-.22l-49.9,63Z"/><polygon class="cls-2" points="2199.39 848.61 2149.48 911.62 2101.65 848.84 2199.39 848.61"/><polygon class="cls-3" points="2198.79 856.5 2199.33 856.49 2149.43 919.5 2101.59 856.72 2198.79 856.5"/><path class="cls-4" d="M2092.46,853.59c2.52-.28,95-.24,97.74-.22l-49.9,63Z"/><polygon class="cls-3" points="2414.78 931.46 2415.31 931.46 2365.41 994.46 2317.57 931.68 2414.78 931.46"/><path class="cls-4" d="M2308.44,927.55c2.52-.28,95-.24,97.74-.22l-49.9,63Z"/><polygon class="cls-2" points="2415.37 922.58 2365.47 985.58 2317.63 922.8 2415.37 922.58"/><polygon class="cls-3" points="2363.96 987.51 2363.42 987.51 2413.23 924.44 2461.16 987.16 2363.96 987.51"/><polygon class="cls-2" points="2363.38 996.39 2413.19 933.32 2461.11 996.04 2363.38 996.39"/><path class="cls-4" d="M2470.3,990.27c-2.52.28-95,.37-97.74.35l49.81-63.07Z"/><polygon class="cls-3" points="2510.34 932.46 2510.87 932.46 2460.97 995.46 2413.13 932.68 2510.34 932.46"/><path class="cls-4" d="M2403,927.55c2.52-.28,95-.24,97.74-.22l-49.9,63Z"/><polygon class="cls-2" points="2509.93 922.58 2460.03 985.58 2412.19 922.8 2509.93 922.58"/><path class="cls-4" d="M2375,845.14c-2.52.28-95,.37-97.74.35l49.81-63.07Z"/><polygon class="cls-3" points="2268.66 842.38 2268.13 842.38 2317.94 779.31 2365.87 842.03 2268.66 842.38"/><polygon class="cls-2" points="2268.08 850.26 2317.89 787.19 2365.82 849.91 2268.08 850.26"/><polygon class="cls-3" points="2358.95 845.39 2358.41 845.39 2408.22 782.32 2456.15 845.04 2358.95 845.39"/><polygon class="cls-4" points="2358.36 853.27 2408.18 790.2 2456.1 852.92 2358.36 853.27"/><path class="cls-2" d="M2465.29,848.15c-2.52.28-95,.37-97.74.35l49.81-63.07Z"/><polygon class="cls-2" points="2424.34 774.45 2374.44 837.45 2326.6 774.67 2424.34 774.45"/><polygon class="cls-4" points="2423.75 782.33 2424.29 782.33 2374.38 845.33 2326.55 782.55 2423.75 782.33"/><path class="cls-3" d="M2317.41,779.42c2.52-.28,95-.24,97.74-.22l-49.9,63Z"/><polygon class="cls-2" points="2524.5 781.69 2474.6 844.7 2426.76 781.92 2524.5 781.69"/><polygon class="cls-3" points="2523.91 789.58 2524.44 789.58 2474.54 852.58 2426.7 789.8 2523.91 789.58"/><path class="cls-4" d="M2417.57,786.67c2.52-.28,95-.24,97.74-.22l-49.9,63Z"/><polygon class="cls-2" points="2473.64 860.6 2523.45 797.53 2571.38 860.25 2473.64 860.6"/><path class="cls-4" d="M2580.56,855.48c-2.52.28-95,.37-97.74.35l49.81-63.07Z"/><polygon class="cls-3" points="2474.22 852.72 2473.69 852.72 2523.5 789.65 2571.43 852.37 2474.22 852.72"/><polygon class="cls-2" points="2621.82 781.77 2571.91 844.78 2524.08 782 2621.82 781.77"/><polygon class="cls-4" points="2621.22 789.66 2621.76 789.65 2571.86 852.66 2524.02 789.88 2621.22 789.66"/><path class="cls-3" d="M2514.89,786.75c2.52-.28,95-.24,97.74-.22l-49.9,63Z"/><path class="cls-3" d="M2678.73,854.07c-2.52.28-95,.37-97.74.35l49.81-63.07Z"/><polygon class="cls-2" points="2571.81 859.19 2621.62 796.12 2669.55 858.83 2571.81 859.19"/><polygon class="cls-4" points="2572.39 851.3 2571.86 851.31 2621.67 788.23 2669.6 850.95 2572.39 851.3"/><polygon class="cls-2" points="474.03 1001.79 523.72 938.86 571.54 1001.43 474.03 1001.79"/><path class="cls-4" d="M580.7,996.68c-2.51.28-94.76.37-97.5.35l49.69-62.92Z"/><polygon class="cls-3" points="474.61 993.92 474.08 993.92 523.77 931 571.58 993.57 474.61 993.92"/><polygon class="cls-2" points="387.53 1002.26 437.22 939.34 485.04 1001.91 387.53 1002.26"/><path class="cls-4" d="M494.2,997.15c-2.51.28-94.76.37-97.5.35l49.69-62.92Z"/><polygon class="cls-3" points="388.11 994.4 387.58 994.4 437.27 931.48 485.08 994.05 388.11 994.4"/><polygon class="cls-2" points="533.75 926.78 483.97 989.64 436.25 927 533.75 926.78"/><polygon class="cls-3" points="533.16 934.65 533.69 934.64 483.91 997.5 436.19 934.87 533.16 934.65"/><path class="cls-4" d="M427.08,931.75c2.51-.27,94.77-.24,97.51-.22L474.8,994.38Z"/><polygon class="cls-3" points="298.51 994.54 297.98 994.54 347.67 931.62 395.48 994.18 298.51 994.54"/><polygon class="cls-2" points="297.93 1002.4 347.62 939.48 395.43 1002.05 297.93 1002.4"/><path class="cls-4" d="M404.6,997.29c-2.51.28-94.76.37-97.5.35l49.69-62.92Z"/><polygon class="cls-3" points="443.56 934.79 444.09 934.78 394.31 997.64 346.58 935 443.56 934.79"/><path class="cls-4" d="M337.47,931.89c2.51-.27,94.77-.24,97.51-.22L385.2,994.52Z"/><polygon class="cls-2" points="444.15 926.92 394.36 989.77 346.64 927.14 444.15 926.92"/><path class="cls-4" d="M315.2,997.47c-2.51.28-94.76.37-97.5.35l49.69-62.92Z"/><polygon class="cls-3" points="209.11 994.72 208.58 994.72 258.27 931.8 306.08 994.37 209.11 994.72"/><polygon class="cls-2" points="208.53 1002.58 258.22 939.66 306.04 1002.23 208.53 1002.58"/><polygon class="cls-2" points="364.75 927.26 314.97 990.11 267.25 927.48 364.75 927.26"/><polygon class="cls-4" points="364.16 935.12 364.69 935.12 314.91 997.98 267.19 935.34 364.16 935.12"/><path class="cls-3" d="M258.08,932.23c2.51-.27,94.77-.24,97.51-.22L305.8,994.86Z"/><polygon class="cls-2" points="274 927.5 224.22 990.35 176.5 927.72 274 927.5"/><polygon class="cls-3" points="273.41 935.36 273.94 935.36 224.16 998.21 176.44 935.58 273.41 935.36"/><path class="cls-4" d="M167.33,932.46c2.51-.27,94.77-.24,97.51-.22L215,995.1Z"/><polygon class="cls-2" points="518.53 929.78 568.22 866.86 616.04 929.43 518.53 929.78"/><path class="cls-4" d="M625.2,924.67c-2.51.28-94.76.37-97.5.35l49.69-62.92Z"/><polygon class="cls-3" points="519.11 921.92 518.58 921.92 568.27 859 616.08 921.57 519.11 921.92"/><polygon class="cls-3" points="429.51 922.05 428.98 922.06 478.67 859.14 526.48 921.7 429.51 922.05"/><polygon class="cls-2" points="428.93 929.92 478.62 867 526.43 929.57 428.93 929.92"/><path class="cls-4" d="M535.6,924.81c-2.51.28-94.76.37-97.5.35l49.69-62.92Z"/><path class="cls-4" d="M446.2,925c-2.51.28-94.76.37-97.5.35l49.69-62.92Z"/><polygon class="cls-3" points="340.11 922.23 339.58 922.24 389.27 859.32 437.08 921.88 340.11 922.23"/><polygon class="cls-2" points="339.53 930.1 389.22 867.18 437.04 929.75 339.53 930.1"/><polygon class="cls-2" points="249.93 930.24 299.62 867.32 347.43 929.88 249.93 930.24"/><path class="cls-4" d="M356.6,925.13c-2.51.28-94.76.37-97.5.35l49.69-62.92Z"/><polygon class="cls-3" points="250.51 922.37 249.97 922.38 299.67 859.45 347.48 922.02 250.51 922.37"/><polygon class="cls-2" points="495.75 854.78 445.97 917.63 398.25 855 495.75 854.78"/><polygon class="cls-4" points="495.16 862.64 495.69 862.64 445.91 925.5 398.19 862.86 495.16 862.64"/><path class="cls-3" d="M389.08,859.74c2.51-.27,94.77-.24,97.51-.22L436.8,922.38Z"/><polygon class="cls-2" points="405 855.02 355.22 917.87 307.5 855.24 405 855.02"/><polygon class="cls-3" points="404.41 862.88 404.94 862.88 355.16 925.73 307.44 863.1 404.41 862.88"/><path class="cls-4" d="M298.33,860c2.51-.27,94.77-.24,97.51-.22L346,922.61Z"/><polygon class="cls-3" points="619.87 936.67 620.41 936.66 570.62 999.52 522.9 936.89 619.87 936.67"/><path class="cls-4" d="M513.79,933.77c2.51-.27,94.77-.24,97.51-.22L561.51,996.4Z"/><polygon class="cls-2" points="620.47 928.8 570.68 991.66 522.96 929.02 620.47 928.8"/><polygon class="cls-3" points="569.18 993.58 568.64 993.59 618.33 930.66 666.15 993.23 569.18 993.58"/><polygon class="cls-2" points="568.6 1002.45 618.29 939.52 666.1 1002.09 568.6 1002.45"/><path class="cls-4" d="M675.26,996.34c-2.51.28-94.76.37-97.5.35l49.69-62.92Z"/><polygon class="cls-3" points="714.21 937.67 714.74 937.66 664.96 1000.52 617.24 937.89 714.21 937.67"/><path class="cls-4" d="M608.13,933.77c2.51-.27,94.77-.24,97.51-.22L655.85,996.4Z"/><polygon class="cls-2" points="714.8 928.8 665.01 991.66 617.29 929.02 714.8 928.8"/><path class="cls-4" d="M139.18,996.93c-2.51.28-94.76.37-97.5.35l49.69-62.92Z"/><polygon class="cls-3" points="33.09 994.17 32.56 994.18 82.25 931.25 130.06 993.82 33.09 994.17"/><polygon class="cls-2" points="32.51 1002.04 82.2 939.12 130.01 1001.68 32.51 1002.04"/><polygon class="cls-2" points="179.81 931.01 130.03 993.86 82.31 931.23 179.81 931.01"/><path class="cls-4" d="M73.14,936c2.51-.27,94.77-.24,97.51-.22l-49.78,62.85Z"/><polygon class="cls-3" points="178.22 938.87 178.75 938.87 128.97 1001.73 81.25 939.09 178.22 938.87"/><polygon class="cls-4" points="71.71 943.51 121.41 880.59 169.22 943.16 71.71 943.51"/><path class="cls-3" d="M178.38,938.41c-2.51.28-94.76.37-97.5.35l49.69-62.92Z"/><polygon class="cls-2" points="72.3 935.65 71.76 935.65 121.45 872.73 169.26 935.3 72.3 935.65"/><polygon class="cls-3" points="120.89 880.78 121.42 880.78 71.64 943.63 23.92 881 120.89 880.78"/><path class="cls-4" d="M14.81,877.88c2.51-.27,94.77-.24,97.51-.22L62.53,940.51Z"/><polygon class="cls-2" points="121.48 872.92 71.7 935.77 23.98 873.14 121.48 872.92"/><path class="cls-4" d="M119.69,868.77c-2.51.28-94.76.37-97.5.35l49.69-62.92Z"/><polygon class="cls-3" points="13.6 866.02 13.07 866.02 62.76 803.1 110.57 865.67 13.6 866.02"/><polygon class="cls-2" points="13.02 873.88 62.71 810.96 110.53 873.53 13.02 873.88"/><path class="cls-5" d="M.33,1019.49,18,1020l14.51-18,148.3-.67,8.09,12.12,14-21,6,8.92H723l14-21h16.12L782.23,1024,796.28,1003H1037.7l4.59,6.88,4.62-6.91h135.22l24.07-36.05,9.05,13.56h59.06l22.07,33.07h53.15l12-18h122.28l9.81,14.7,15-22.44,5.18,7.76h271.8l20-30,40,59.92,16-23.93h69.25l15.41,23.09,38.83-58.17L2007.44,996h269.65l6-8.95,16,23.9,9.92-14.86,169.06.54,15.51,17.9,86.16-.23,13.64-33.07,56-.59,11-14,22.33,37.67,61.58-.74,4.87,7.29,4.93-7.38H2994.8l14,21,29-43.51h17.1l14.08,21.09h515.12l5.06-7.58,13.09,19.6,8-12h42.79v34.51H.33Z"/><path class="cls-2" d="M3652.9,489.72v-3.79l-2020-.4-78.29-154.44L.33,330.65v11.44l825.36,2.28-.09-9.75,727.19.63,76.66,153.9Z"/><image width="64" height="64" transform="translate(129.35 811.15) scale(0.39 0.37)" xlink:href="../../iconfinder_social_media_applications_3-instagram_4102579.png"/><image width="64" height="64" transform="translate(129.35 773) scale(0.39 0.37)" xlink:href="../../iconfinder_social-twitch-square2_4590797.png"/><text class="cls-6" transform="translate(162.34 830.52) scale(0.93 1)"><tspan class="cls-7">/</tspan><tspan class="cls-8" x="11.89" y="0">k</tspan><tspan class="cls-9" x="24.42" y="0">a</tspan><tspan x="37.64" y="0">y</tspan><tspan class="cls-10" x="49.92" y="0">l</tspan><tspan class="cls-9" x="55.74" y="0">a</tspan><tspan class="cls-10" x="68.95" y="0">j</tspan><tspan class="cls-8" x="74.77" y="0">k</tspan><tspan class="cls-10" x="87.3" y="0">l</tspan><tspan class="cls-9" x="93.12" y="0">a</tspan><tspan x="106.33" y="0">b</tspan></text><text class="cls-6" transform="translate(162.34 792.22) scale(0.93 1)"><tspan class="cls-7">/</tspan><tspan class="cls-8" x="11.89" y="0">k</tspan><tspan class="cls-9" x="24.42" y="0">a</tspan><tspan x="37.64" y="0">y</tspan><tspan class="cls-10" x="49.92" y="0">l</tspan><tspan class="cls-9" x="55.74" y="0">a</tspan><tspan class="cls-10" x="68.95" y="0">j</tspan><tspan class="cls-8" x="74.77" y="0">k</tspan><tspan class="cls-10" x="87.3" y="0">l</tspan><tspan class="cls-9" x="93.12" y="0">a</tspan><tspan x="106.33" y="0">b</tspan></text><text class="cls-11" transform="translate(161.68 756.07) scale(0.93 1)">/<tspan class="cls-8" x="11.89" y="0">kaylajk</tspan><tspan class="cls-10" x="87.26" y="0">l</tspan><tspan class="cls-9" x="93.08" y="0">a</tspan><tspan class="cls-8" x="106.29" y="0">b</tspan></text><g class="cls-12"><image width="64" height="64" transform="translate(129.02 735.33) scale(0.39)" xlink:href="../../iconfinder_28-deviantart_5462595.png"/></g><image width="64" height="64" transform="translate(129.35 698.53) scale(0.39 0.37)" xlink:href="../../iconfinder_YouTube_2613309.png"/><text class="cls-6" transform="translate(162.01 719.07) scale(0.93 1)"><tspan class="cls-7">/</tspan><tspan class="cls-8" x="11.89" y="0">k’s</tspan><tspan class="cls-10" x="39.61" y="0">l</tspan><tspan class="cls-13" x="45.43" y="0">a</tspan><tspan x="58.64" y="0">b</tspan></text><path class="cls-14" d="M.61,1033.34c1194.51,1.77,3629.65,2.19,3652.71.63l.35,35.7L0,1071.33Z"/><path d="M2588,523.21"/><text class="cls-15" transform="translate(2918.79 895.59) scale(0.95 1)">&apos;</text><text class="cls-16" transform="matrix(-0.95, 0, 0, 1, 3463.34, 972.81)">o</text><text class="cls-17" transform="matrix(-0.95, 0, 0, 1, 3040.01, 898.31)">s</text><rect class="cls-18" x="2811.44" y="700.09" width="48.28" height="264.15"/><path class="cls-2" d="M3010.92,703.51l3.18,22.75L2824.68,849.09,3014.3,973l0,24.82L2785.73,849.12Z"/><path class="cls-19" d="M2993.53,676l3.18,22.75L2807.29,821.53,2996.9,945.47l0,24.82L2768.33,821.56Z"/><path class="cls-4" d="M2982.5,703.53l3.18,22.75L2796.25,849.11l189.62,123.95,0,24.82L2757.3,849.14Z"/><text class="cls-20" transform="translate(3156.29 969.09) scale(0.95 1)">i</text><path class="cls-21" d="M3310.3,886.19l-29.43-11.36a3,3,0,0,1-1.75-4.06h0a3.53,3.53,0,0,1,4.43-1.67L3313,880.46a3,3,0,0,1,1.75,4.06h0A3.53,3.53,0,0,1,3310.3,886.19Z"/><path class="cls-22" d="M3295.39,895.67c17.32,9.32,24.76,29.14,16.63,46.5-8.86,18.9-32.83,27.73-53.55,19.72s-30.33-29.83-21.48-48.73c8-17,28.2-25.87,47.27-21.62"/><path class="cls-18" d="M3290.09,872l2.67,1a1.66,1.66,0,0,1,.95,2.26L3285,893.87a2,2,0,0,1-2.45,1l-2.67-1a1.66,1.66,0,0,1-.95-2.26l8.68-18.58A2,2,0,0,1,3290.09,872Z"/><path class="cls-23" d="M3294.36,894.12l7.4-15.85a1.89,1.89,0,0,1,2.39-.83l2.43.93a1.6,1.6,0,0,1,1,2.13l-8.68,18.6a1.89,1.89,0,0,1-2.39.83l-2.43-.93a1.6,1.6,0,0,1-1-2.13l1.28-2.75"/><path class="cls-24" d="M3280.46,913.08a2.83,2.83,0,0,1-3.57,1.3,2.39,2.39,0,0,1-1.44-3.24,2.83,2.83,0,0,1,3.57-1.3A2.39,2.39,0,0,1,3280.46,913.08Z"/><path class="cls-25" d="M3294.67,914.28a4.52,4.52,0,0,1-5.7,2.09,3.83,3.83,0,0,1-2.3-5.18,4.52,4.52,0,0,1,5.7-2.09A3.83,3.83,0,0,1,3294.67,914.28Z"/><path class="cls-2" d="M3284.27,922.6a4,4,0,0,1-5,1.83,3.35,3.35,0,0,1-2-4.53,4,4,0,0,1,5-1.83A3.35,3.35,0,0,1,3284.27,922.6Z"/><path class="cls-2" d="M3288.25,904a3.11,3.11,0,0,1-3.92,1.44,2.63,2.63,0,0,1-1.58-3.56,3.11,3.11,0,0,1,3.92-1.44A2.63,2.63,0,0,1,3288.25,904Z"/><path class="cls-3" d="M3294.64,890.39a3.11,3.11,0,0,1-3.92,1.44,2.63,2.63,0,0,1-1.58-3.56,3.11,3.11,0,0,1,3.92-1.44A2.63,2.63,0,0,1,3294.64,890.39Z"/><path class="cls-2" d="M3295.57,864.45a4.24,4.24,0,0,1,5.35-2,3.59,3.59,0,0,1,2.15,4.86,4.24,4.24,0,0,1-5.35,2A3.59,3.59,0,0,1,3295.57,864.45Z"/><path class="cls-3" d="M3301.32,855.94a2.54,2.54,0,0,1-3.21,1.17,2.15,2.15,0,0,1-1.29-2.91A2.54,2.54,0,0,1,3300,853,2.15,2.15,0,0,1,3301.32,855.94Z"/><path class="cls-26" d="M3308.59,929.05c3.06,8.45-8.94,21.56-23,25-15.49,3.82-33-4.26-38.63-14.94-5.87-11.1-1.7-25.69-1.83-24.56-.61,5.43,9.24,13.19,19,14.88,16,2.76,25.62-11.8,37.59-6.81C3302.39,922.91,3307.1,924.94,3308.59,929.05Z"/><path class="cls-2" d="M3249.81,909.43c-8.83,3.85-10.91,20.8-3.94,32.38,7.71,12.79,26.25,18.64,38.63,14.94,12.88-3.85,21.56-16.7,20.75-15.83-3.89,4.17-16.87,3.1-25-2.12-13.27-8.55-8.4-24.95-20.66-29.33C3259,909.22,3254.1,907.55,3249.81,909.43Z"/><text class="cls-17" transform="matrix(-0.95, 0, 0, 1, 3339.79, 968.59)">i</text><text class="cls-20" transform="translate(3351.79 968.92) scale(0.95 1)">i</text></g></g></svg>